<mxfile host="app.diagrams.net" modified="2022-03-24T11:22:29.974Z" agent="5.0 (Windows NT 10.0; Win64; x64) AppleWebKit/537.36 (KHTML, like Gecko) Chrome/99.0.4844.82 Safari/537.36" etag="DBrfMU5z8ynHXUvw8taZ" version="17.2.1" type="github">
  <diagram id="tf5nVhcplgvDCRmUaLse" name="Page-1">
    <mxGraphModel dx="2315" dy="2047" grid="0" gridSize="10" guides="1" tooltips="1" connect="1" arrows="1" fold="1" page="1" pageScale="1" pageWidth="827" pageHeight="1169" math="0" shadow="0">
      <root>
        <mxCell id="0" />
        <mxCell id="1" parent="0" />
        <mxCell id="Lr7fWx6m4Q7cgu5vA2JN-1" style="rounded=0;orthogonalLoop=1;jettySize=auto;html=1;endArrow=openThin;endFill=0;edgeStyle=orthogonalEdgeStyle;dashed=1;" parent="1" source="Lr7fWx6m4Q7cgu5vA2JN-9" target="Lr7fWx6m4Q7cgu5vA2JN-84" edge="1">
          <mxGeometry relative="1" as="geometry">
            <Array as="points">
              <mxPoint x="269" y="61" />
              <mxPoint x="269" y="61" />
            </Array>
            <mxPoint x="306" y="83.5" as="sourcePoint" />
            <mxPoint x="132" y="-12.999999999999773" as="targetPoint" />
          </mxGeometry>
        </mxCell>
        <mxCell id="Lr7fWx6m4Q7cgu5vA2JN-2" style="rounded=0;orthogonalLoop=1;jettySize=auto;html=1;endArrow=openThin;endFill=0;edgeStyle=orthogonalEdgeStyle;dashed=1;" parent="1" source="Lr7fWx6m4Q7cgu5vA2JN-9" target="Lr7fWx6m4Q7cgu5vA2JN-87" edge="1">
          <mxGeometry relative="1" as="geometry">
            <Array as="points">
              <mxPoint x="273" y="199" />
              <mxPoint x="273" y="199" />
            </Array>
          </mxGeometry>
        </mxCell>
        <mxCell id="Lr7fWx6m4Q7cgu5vA2JN-3" style="edgeStyle=orthogonalEdgeStyle;rounded=0;orthogonalLoop=1;jettySize=auto;html=1;endArrow=none;endFill=0;" parent="1" source="Lr7fWx6m4Q7cgu5vA2JN-9" target="Lr7fWx6m4Q7cgu5vA2JN-154" edge="1">
          <mxGeometry relative="1" as="geometry">
            <Array as="points">
              <mxPoint x="-306" y="116" />
            </Array>
          </mxGeometry>
        </mxCell>
        <mxCell id="Lr7fWx6m4Q7cgu5vA2JN-4" value="1..1" style="edgeLabel;html=1;align=center;verticalAlign=middle;resizable=0;points=[];labelBackgroundColor=none;" parent="Lr7fWx6m4Q7cgu5vA2JN-3" vertex="1" connectable="0">
          <mxGeometry x="-0.9452" relative="1" as="geometry">
            <mxPoint x="11" y="-6" as="offset" />
          </mxGeometry>
        </mxCell>
        <mxCell id="Lr7fWx6m4Q7cgu5vA2JN-5" value="1..*" style="edgeLabel;html=1;align=center;verticalAlign=middle;resizable=0;points=[];labelBackgroundColor=none;" parent="Lr7fWx6m4Q7cgu5vA2JN-3" vertex="1" connectable="0">
          <mxGeometry x="0.9363" relative="1" as="geometry">
            <mxPoint x="9" y="19" as="offset" />
          </mxGeometry>
        </mxCell>
        <mxCell id="Lr7fWx6m4Q7cgu5vA2JN-6" value="" style="edgeStyle=orthogonalEdgeStyle;rounded=0;orthogonalLoop=1;jettySize=auto;html=1;endArrow=none;endFill=0;" parent="1" source="Lr7fWx6m4Q7cgu5vA2JN-9" target="Lr7fWx6m4Q7cgu5vA2JN-20" edge="1">
          <mxGeometry relative="1" as="geometry">
            <Array as="points">
              <mxPoint x="372" y="-101" />
            </Array>
          </mxGeometry>
        </mxCell>
        <mxCell id="Lr7fWx6m4Q7cgu5vA2JN-7" value="1..*" style="edgeLabel;html=1;align=center;verticalAlign=middle;resizable=0;points=[];labelBackgroundColor=none;" parent="Lr7fWx6m4Q7cgu5vA2JN-6" vertex="1" connectable="0">
          <mxGeometry x="-0.864" y="2" relative="1" as="geometry">
            <mxPoint x="11" y="11" as="offset" />
          </mxGeometry>
        </mxCell>
        <mxCell id="Lr7fWx6m4Q7cgu5vA2JN-8" value="1..1" style="edgeLabel;html=1;align=center;verticalAlign=middle;resizable=0;points=[];labelBackgroundColor=none;" parent="Lr7fWx6m4Q7cgu5vA2JN-6" vertex="1" connectable="0">
          <mxGeometry x="0.9126" y="1" relative="1" as="geometry">
            <mxPoint x="-1" y="-6" as="offset" />
          </mxGeometry>
        </mxCell>
        <mxCell id="Lr7fWx6m4Q7cgu5vA2JN-9" value="Projet" style="swimlane;fontStyle=1;align=center;verticalAlign=middle;childLayout=stackLayout;horizontal=1;startSize=29;horizontalStack=0;resizeParent=1;resizeParentMax=0;resizeLast=0;collapsible=0;marginBottom=0;html=1;fontSize=12;labelPosition=center;verticalLabelPosition=middle;container=0;strokeColor=default;swimlaneLine=1;rounded=0;shadow=0;glass=0;sketch=0;perimeterSpacing=0;" parent="1" vertex="1">
          <mxGeometry x="306" y="52" width="150" height="211" as="geometry" />
        </mxCell>
        <mxCell id="Lr7fWx6m4Q7cgu5vA2JN-10" value="- id: Long" style="text;strokeColor=none;fillColor=none;align=left;verticalAlign=top;spacingLeft=4;spacingRight=4;overflow=hidden;rotatable=0;points=[[0,0.5],[1,0.5]];portConstraint=eastwest;container=0;" parent="Lr7fWx6m4Q7cgu5vA2JN-9" vertex="1">
          <mxGeometry y="29" width="150" height="26" as="geometry" />
        </mxCell>
        <mxCell id="Lr7fWx6m4Q7cgu5vA2JN-11" value="- code : String" style="text;strokeColor=none;fillColor=none;align=left;verticalAlign=top;spacingLeft=4;spacingRight=4;overflow=hidden;rotatable=0;points=[[0,0.5],[1,0.5]];portConstraint=eastwest;container=0;" parent="Lr7fWx6m4Q7cgu5vA2JN-9" vertex="1">
          <mxGeometry y="55" width="150" height="26" as="geometry" />
        </mxCell>
        <mxCell id="Lr7fWx6m4Q7cgu5vA2JN-12" value="- name: String" style="text;strokeColor=none;fillColor=none;align=left;verticalAlign=top;spacingLeft=4;spacingRight=4;overflow=hidden;rotatable=0;points=[[0,0.5],[1,0.5]];portConstraint=eastwest;container=0;" parent="Lr7fWx6m4Q7cgu5vA2JN-9" vertex="1">
          <mxGeometry y="81" width="150" height="26" as="geometry" />
        </mxCell>
        <mxCell id="Lr7fWx6m4Q7cgu5vA2JN-13" value="- plannedStartDate : Date" style="text;strokeColor=none;fillColor=none;align=left;verticalAlign=top;spacingLeft=4;spacingRight=4;overflow=hidden;rotatable=0;points=[[0,0.5],[1,0.5]];portConstraint=eastwest;container=0;" parent="Lr7fWx6m4Q7cgu5vA2JN-9" vertex="1">
          <mxGeometry y="107" width="150" height="26" as="geometry" />
        </mxCell>
        <mxCell id="Lr7fWx6m4Q7cgu5vA2JN-14" value="- plannedEndDate : Date" style="text;strokeColor=none;fillColor=none;align=left;verticalAlign=top;spacingLeft=4;spacingRight=4;overflow=hidden;rotatable=0;points=[[0,0.5],[1,0.5]];portConstraint=eastwest;container=0;" parent="Lr7fWx6m4Q7cgu5vA2JN-9" vertex="1">
          <mxGeometry y="133" width="150" height="26" as="geometry" />
        </mxCell>
        <mxCell id="Lr7fWx6m4Q7cgu5vA2JN-15" value="- startDate : Date" style="text;strokeColor=none;fillColor=none;align=left;verticalAlign=top;spacingLeft=4;spacingRight=4;overflow=hidden;rotatable=0;points=[[0,0.5],[1,0.5]];portConstraint=eastwest;container=0;" parent="Lr7fWx6m4Q7cgu5vA2JN-9" vertex="1">
          <mxGeometry y="159" width="150" height="26" as="geometry" />
        </mxCell>
        <mxCell id="Lr7fWx6m4Q7cgu5vA2JN-16" value="- endDate : Date" style="text;strokeColor=none;fillColor=none;align=left;verticalAlign=top;spacingLeft=4;spacingRight=4;overflow=hidden;rotatable=0;points=[[0,0.5],[1,0.5]];portConstraint=eastwest;container=0;" parent="Lr7fWx6m4Q7cgu5vA2JN-9" vertex="1">
          <mxGeometry y="185" width="150" height="26" as="geometry" />
        </mxCell>
        <mxCell id="Lr7fWx6m4Q7cgu5vA2JN-17" style="edgeStyle=orthogonalEdgeStyle;rounded=0;orthogonalLoop=1;jettySize=auto;html=1;endArrow=none;endFill=0;" parent="1" source="Lr7fWx6m4Q7cgu5vA2JN-20" target="Lr7fWx6m4Q7cgu5vA2JN-23" edge="1">
          <mxGeometry relative="1" as="geometry">
            <Array as="points">
              <mxPoint x="705" y="-101" />
            </Array>
          </mxGeometry>
        </mxCell>
        <mxCell id="Lr7fWx6m4Q7cgu5vA2JN-18" value="1..*" style="edgeLabel;html=1;align=center;verticalAlign=middle;resizable=0;points=[];labelBackgroundColor=none;" parent="Lr7fWx6m4Q7cgu5vA2JN-17" vertex="1" connectable="0">
          <mxGeometry x="0.9816" y="-1" relative="1" as="geometry">
            <mxPoint x="9" y="-4" as="offset" />
          </mxGeometry>
        </mxCell>
        <mxCell id="Lr7fWx6m4Q7cgu5vA2JN-19" value="1..1" style="edgeLabel;html=1;align=center;verticalAlign=middle;resizable=0;points=[];labelBackgroundColor=none;" parent="Lr7fWx6m4Q7cgu5vA2JN-17" vertex="1" connectable="0">
          <mxGeometry x="-0.9857" relative="1" as="geometry">
            <mxPoint x="8" y="-6" as="offset" />
          </mxGeometry>
        </mxCell>
        <mxCell id="Lr7fWx6m4Q7cgu5vA2JN-20" value="Departement" style="swimlane;fontStyle=1;align=center;verticalAlign=middle;childLayout=stackLayout;horizontal=1;startSize=29;horizontalStack=0;resizeParent=1;resizeParentMax=0;resizeLast=0;collapsible=0;marginBottom=0;html=1;fontSize=12;labelPosition=center;verticalLabelPosition=middle;container=0;" parent="1" vertex="1">
          <mxGeometry x="456" y="-142" width="150" height="81" as="geometry" />
        </mxCell>
        <mxCell id="Lr7fWx6m4Q7cgu5vA2JN-21" value="- id: Long" style="text;strokeColor=none;fillColor=none;align=left;verticalAlign=top;spacingLeft=4;spacingRight=4;overflow=hidden;rotatable=0;points=[[0,0.5],[1,0.5]];portConstraint=eastwest;container=0;" parent="Lr7fWx6m4Q7cgu5vA2JN-20" vertex="1">
          <mxGeometry y="29" width="150" height="26" as="geometry" />
        </mxCell>
        <mxCell id="Lr7fWx6m4Q7cgu5vA2JN-22" value="- name : String" style="text;strokeColor=none;fillColor=none;align=left;verticalAlign=top;spacingLeft=4;spacingRight=4;overflow=hidden;rotatable=0;points=[[0,0.5],[1,0.5]];portConstraint=eastwest;container=0;" parent="Lr7fWx6m4Q7cgu5vA2JN-20" vertex="1">
          <mxGeometry y="55" width="150" height="26" as="geometry" />
        </mxCell>
        <mxCell id="Lr7fWx6m4Q7cgu5vA2JN-23" value="Employee" style="swimlane;fontStyle=1;align=center;verticalAlign=middle;childLayout=stackLayout;horizontal=1;startSize=29;horizontalStack=0;resizeParent=1;resizeParentMax=0;resizeLast=0;collapsible=0;marginBottom=0;html=1;fontSize=12;labelPosition=center;verticalLabelPosition=middle;container=0;" parent="1" vertex="1">
          <mxGeometry x="614" y="-33" width="150" height="133" as="geometry" />
        </mxCell>
        <mxCell id="Lr7fWx6m4Q7cgu5vA2JN-24" value="- id: Long" style="text;strokeColor=none;fillColor=none;align=left;verticalAlign=top;spacingLeft=4;spacingRight=4;overflow=hidden;rotatable=0;points=[[0,0.5],[1,0.5]];portConstraint=eastwest;container=0;" parent="Lr7fWx6m4Q7cgu5vA2JN-23" vertex="1">
          <mxGeometry y="29" width="150" height="26" as="geometry" />
        </mxCell>
        <mxCell id="Lr7fWx6m4Q7cgu5vA2JN-25" value="- code: String" style="text;strokeColor=none;fillColor=none;align=left;verticalAlign=top;spacingLeft=4;spacingRight=4;overflow=hidden;rotatable=0;points=[[0,0.5],[1,0.5]];portConstraint=eastwest;container=0;" parent="Lr7fWx6m4Q7cgu5vA2JN-23" vertex="1">
          <mxGeometry y="55" width="150" height="26" as="geometry" />
        </mxCell>
        <mxCell id="Lr7fWx6m4Q7cgu5vA2JN-26" value="- name : String" style="text;strokeColor=none;fillColor=none;align=left;verticalAlign=top;spacingLeft=4;spacingRight=4;overflow=hidden;rotatable=0;points=[[0,0.5],[1,0.5]];portConstraint=eastwest;container=0;" parent="Lr7fWx6m4Q7cgu5vA2JN-23" vertex="1">
          <mxGeometry y="81" width="150" height="26" as="geometry" />
        </mxCell>
        <mxCell id="Lr7fWx6m4Q7cgu5vA2JN-27" value="- bu : String" style="text;strokeColor=none;fillColor=none;align=left;verticalAlign=top;spacingLeft=4;spacingRight=4;overflow=hidden;rotatable=0;points=[[0,0.5],[1,0.5]];portConstraint=eastwest;container=0;" parent="Lr7fWx6m4Q7cgu5vA2JN-23" vertex="1">
          <mxGeometry y="107" width="150" height="26" as="geometry" />
        </mxCell>
        <mxCell id="Lr7fWx6m4Q7cgu5vA2JN-28" style="edgeStyle=orthogonalEdgeStyle;shape=connector;rounded=0;orthogonalLoop=1;jettySize=auto;html=1;labelBackgroundColor=default;fontFamily=Helvetica;fontSize=12;fontColor=default;endArrow=none;endFill=0;strokeColor=default;align=center;labelPosition=center;verticalLabelPosition=middle;verticalAlign=middle;" parent="1" source="Lr7fWx6m4Q7cgu5vA2JN-172" target="Lr7fWx6m4Q7cgu5vA2JN-9" edge="1">
          <mxGeometry relative="1" as="geometry" />
        </mxCell>
        <mxCell id="Lr7fWx6m4Q7cgu5vA2JN-29" value="1..1" style="edgeLabel;html=1;align=center;verticalAlign=middle;resizable=0;points=[];fontSize=12;fontFamily=Helvetica;fontColor=default;labelPosition=center;verticalLabelPosition=middle;labelBackgroundColor=none;container=0;" parent="Lr7fWx6m4Q7cgu5vA2JN-28" vertex="1" connectable="0">
          <mxGeometry x="0.7802" y="-2" relative="1" as="geometry">
            <mxPoint x="10" as="offset" />
          </mxGeometry>
        </mxCell>
        <mxCell id="Lr7fWx6m4Q7cgu5vA2JN-30" value="1..1" style="edgeLabel;html=1;align=center;verticalAlign=middle;resizable=0;points=[];fontSize=12;fontFamily=Helvetica;fontColor=default;labelPosition=center;verticalLabelPosition=middle;labelBackgroundColor=none;container=0;" parent="Lr7fWx6m4Q7cgu5vA2JN-28" vertex="1" connectable="0">
          <mxGeometry x="-0.6852" relative="1" as="geometry">
            <mxPoint x="12" y="2" as="offset" />
          </mxGeometry>
        </mxCell>
        <mxCell id="Lr7fWx6m4Q7cgu5vA2JN-31" style="rounded=0;orthogonalLoop=1;jettySize=auto;html=1;endArrow=none;endFill=0;edgeStyle=orthogonalEdgeStyle;" parent="1" source="Lr7fWx6m4Q7cgu5vA2JN-175" target="Lr7fWx6m4Q7cgu5vA2JN-23" edge="1">
          <mxGeometry relative="1" as="geometry">
            <mxPoint x="602" y="829.98" as="targetPoint" />
            <mxPoint x="445" y="568.48" as="sourcePoint" />
            <Array as="points">
              <mxPoint x="156" y="25" />
            </Array>
          </mxGeometry>
        </mxCell>
        <mxCell id="Lr7fWx6m4Q7cgu5vA2JN-32" value="1..1" style="edgeLabel;html=1;align=center;verticalAlign=middle;resizable=0;points=[];labelBackgroundColor=none;container=0;" parent="Lr7fWx6m4Q7cgu5vA2JN-31" vertex="1" connectable="0">
          <mxGeometry x="0.9524" relative="1" as="geometry">
            <mxPoint x="9" y="-5" as="offset" />
          </mxGeometry>
        </mxCell>
        <mxCell id="Lr7fWx6m4Q7cgu5vA2JN-33" value="1..*" style="edgeLabel;html=1;align=center;verticalAlign=middle;resizable=0;points=[];labelBackgroundColor=none;container=0;" parent="Lr7fWx6m4Q7cgu5vA2JN-31" vertex="1" connectable="0">
          <mxGeometry x="-0.9866" y="1" relative="1" as="geometry">
            <mxPoint x="10" y="-1" as="offset" />
          </mxGeometry>
        </mxCell>
        <mxCell id="Lr7fWx6m4Q7cgu5vA2JN-34" style="shape=connector;rounded=0;orthogonalLoop=1;jettySize=auto;html=1;labelBackgroundColor=default;fontFamily=Helvetica;fontSize=12;fontColor=default;endArrow=none;endFill=0;strokeColor=default;align=center;labelPosition=center;verticalLabelPosition=middle;verticalAlign=middle;edgeStyle=orthogonalEdgeStyle;" parent="1" source="Lr7fWx6m4Q7cgu5vA2JN-39" target="Lr7fWx6m4Q7cgu5vA2JN-9" edge="1">
          <mxGeometry relative="1" as="geometry">
            <Array as="points">
              <mxPoint x="-44" y="137" />
            </Array>
          </mxGeometry>
        </mxCell>
        <mxCell id="Lr7fWx6m4Q7cgu5vA2JN-35" value="1..1" style="edgeLabel;html=1;align=center;verticalAlign=middle;resizable=0;points=[];fontSize=12;fontFamily=Helvetica;fontColor=default;labelPosition=center;verticalLabelPosition=middle;labelBackgroundColor=none;container=0;" parent="Lr7fWx6m4Q7cgu5vA2JN-34" vertex="1" connectable="0">
          <mxGeometry x="0.9095" y="-1" relative="1" as="geometry">
            <mxPoint x="13" y="-7" as="offset" />
          </mxGeometry>
        </mxCell>
        <mxCell id="Lr7fWx6m4Q7cgu5vA2JN-36" value="1..*" style="edgeLabel;html=1;align=center;verticalAlign=middle;resizable=0;points=[];fontSize=12;fontFamily=Helvetica;fontColor=default;labelPosition=center;verticalLabelPosition=middle;labelBackgroundColor=none;container=0;" parent="Lr7fWx6m4Q7cgu5vA2JN-34" vertex="1" connectable="0">
          <mxGeometry x="-0.9628" y="-1" relative="1" as="geometry">
            <mxPoint x="8" y="3" as="offset" />
          </mxGeometry>
        </mxCell>
        <mxCell id="Lr7fWx6m4Q7cgu5vA2JN-37" style="rounded=0;orthogonalLoop=1;jettySize=auto;html=1;endArrow=openThin;endFill=0;edgeStyle=orthogonalEdgeStyle;dashed=1;" parent="1" source="Lr7fWx6m4Q7cgu5vA2JN-39" target="Lr7fWx6m4Q7cgu5vA2JN-111" edge="1">
          <mxGeometry relative="1" as="geometry">
            <Array as="points">
              <mxPoint x="-22" y="549" />
              <mxPoint x="-22" y="549" />
            </Array>
          </mxGeometry>
        </mxCell>
        <mxCell id="Lr7fWx6m4Q7cgu5vA2JN-38" style="rounded=0;orthogonalLoop=1;jettySize=auto;html=1;endArrow=openThin;endFill=0;edgeStyle=orthogonalEdgeStyle;dashed=1;" parent="1" source="Lr7fWx6m4Q7cgu5vA2JN-39" target="Lr7fWx6m4Q7cgu5vA2JN-114" edge="1">
          <mxGeometry relative="1" as="geometry">
            <Array as="points">
              <mxPoint x="-114" y="524" />
              <mxPoint x="-114" y="524" />
            </Array>
          </mxGeometry>
        </mxCell>
        <mxCell id="Lr7fWx6m4Q7cgu5vA2JN-39" value="&lt;span style=&quot;font-size: 12px&quot;&gt;Change&lt;/span&gt;" style="swimlane;fontStyle=1;align=center;verticalAlign=middle;childLayout=stackLayout;horizontal=1;startSize=29;horizontalStack=0;resizeParent=1;resizeParentMax=0;resizeLast=0;collapsible=0;marginBottom=0;html=1;shadow=0;fontSize=12;labelPosition=center;verticalLabelPosition=middle;container=0;" parent="1" vertex="1">
          <mxGeometry x="-145" y="324" width="150" height="162" as="geometry" />
        </mxCell>
        <mxCell id="Lr7fWx6m4Q7cgu5vA2JN-40" value="- id: Long" style="text;strokeColor=none;fillColor=none;align=left;verticalAlign=top;spacingLeft=4;spacingRight=4;overflow=hidden;rotatable=0;points=[[0,0.5],[1,0.5]];portConstraint=eastwest;container=0;" parent="Lr7fWx6m4Q7cgu5vA2JN-39" vertex="1">
          <mxGeometry y="29" width="150" height="26" as="geometry" />
        </mxCell>
        <mxCell id="Lr7fWx6m4Q7cgu5vA2JN-41" value="- date : Date" style="text;strokeColor=none;fillColor=none;align=left;verticalAlign=top;spacingLeft=4;spacingRight=4;overflow=hidden;rotatable=0;points=[[0,0.5],[1,0.5]];portConstraint=eastwest;container=0;" parent="Lr7fWx6m4Q7cgu5vA2JN-39" vertex="1">
          <mxGeometry y="55" width="150" height="26" as="geometry" />
        </mxCell>
        <mxCell id="Lr7fWx6m4Q7cgu5vA2JN-42" value="description : String " style="text;strokeColor=none;fillColor=none;align=left;verticalAlign=top;spacingLeft=4;spacingRight=4;overflow=hidden;rotatable=0;points=[[0,0.5],[1,0.5]];portConstraint=eastwest;container=0;" parent="Lr7fWx6m4Q7cgu5vA2JN-39" vertex="1">
          <mxGeometry y="81" width="150" height="27" as="geometry" />
        </mxCell>
        <mxCell id="Lr7fWx6m4Q7cgu5vA2JN-43" value="impact : String" style="text;strokeColor=none;fillColor=none;align=left;verticalAlign=top;spacingLeft=4;spacingRight=4;overflow=hidden;rotatable=0;points=[[0,0.5],[1,0.5]];portConstraint=eastwest;container=0;" parent="Lr7fWx6m4Q7cgu5vA2JN-39" vertex="1">
          <mxGeometry y="108" width="150" height="27" as="geometry" />
        </mxCell>
        <mxCell id="Lr7fWx6m4Q7cgu5vA2JN-44" value="cost : int" style="text;strokeColor=none;fillColor=none;align=left;verticalAlign=top;spacingLeft=4;spacingRight=4;overflow=hidden;rotatable=0;points=[[0,0.5],[1,0.5]];portConstraint=eastwest;container=0;" parent="Lr7fWx6m4Q7cgu5vA2JN-39" vertex="1">
          <mxGeometry y="135" width="150" height="27" as="geometry" />
        </mxCell>
        <mxCell id="Lr7fWx6m4Q7cgu5vA2JN-45" style="shape=connector;rounded=0;orthogonalLoop=1;jettySize=auto;html=1;labelBackgroundColor=default;fontFamily=Helvetica;fontSize=12;fontColor=default;endArrow=none;endFill=0;strokeColor=default;align=center;labelPosition=center;verticalLabelPosition=middle;verticalAlign=middle;edgeStyle=orthogonalEdgeStyle;" parent="1" source="Lr7fWx6m4Q7cgu5vA2JN-52" target="Lr7fWx6m4Q7cgu5vA2JN-9" edge="1">
          <mxGeometry relative="1" as="geometry">
            <Array as="points">
              <mxPoint x="672" y="222" />
            </Array>
            <mxPoint x="544" y="258" as="targetPoint" />
          </mxGeometry>
        </mxCell>
        <mxCell id="Lr7fWx6m4Q7cgu5vA2JN-46" value="1..*" style="edgeLabel;html=1;align=center;verticalAlign=middle;resizable=0;points=[];fontSize=12;fontFamily=Helvetica;fontColor=default;labelPosition=center;verticalLabelPosition=middle;labelBackgroundColor=none;container=0;" parent="Lr7fWx6m4Q7cgu5vA2JN-45" vertex="1" connectable="0">
          <mxGeometry x="-0.9083" relative="1" as="geometry">
            <mxPoint x="9" y="7" as="offset" />
          </mxGeometry>
        </mxCell>
        <mxCell id="Lr7fWx6m4Q7cgu5vA2JN-47" value="1..1" style="edgeLabel;html=1;align=center;verticalAlign=middle;resizable=0;points=[];fontSize=12;fontFamily=Helvetica;fontColor=default;labelPosition=center;verticalLabelPosition=middle;labelBackgroundColor=none;container=0;" parent="Lr7fWx6m4Q7cgu5vA2JN-45" vertex="1" connectable="0">
          <mxGeometry x="0.942" y="1" relative="1" as="geometry">
            <mxPoint y="-7" as="offset" />
          </mxGeometry>
        </mxCell>
        <mxCell id="Lr7fWx6m4Q7cgu5vA2JN-48" style="rounded=0;orthogonalLoop=1;jettySize=auto;html=1;endArrow=none;endFill=0;edgeStyle=orthogonalEdgeStyle;" parent="1" source="Lr7fWx6m4Q7cgu5vA2JN-52" target="Lr7fWx6m4Q7cgu5vA2JN-183" edge="1">
          <mxGeometry relative="1" as="geometry">
            <Array as="points">
              <mxPoint x="517" y="465" />
              <mxPoint x="517" y="465" />
            </Array>
          </mxGeometry>
        </mxCell>
        <mxCell id="Lr7fWx6m4Q7cgu5vA2JN-49" value="0..*" style="edgeLabel;html=1;align=center;verticalAlign=middle;resizable=0;points=[];labelBackgroundColor=none;container=0;" parent="Lr7fWx6m4Q7cgu5vA2JN-48" vertex="1" connectable="0">
          <mxGeometry x="-0.8091" y="-1" relative="1" as="geometry">
            <mxPoint x="5" y="-5" as="offset" />
          </mxGeometry>
        </mxCell>
        <mxCell id="Lr7fWx6m4Q7cgu5vA2JN-50" value="1..1" style="edgeLabel;html=1;align=center;verticalAlign=middle;resizable=0;points=[];labelBackgroundColor=none;container=0;" parent="Lr7fWx6m4Q7cgu5vA2JN-48" vertex="1" connectable="0">
          <mxGeometry x="0.9051" relative="1" as="geometry">
            <mxPoint x="1" y="-6" as="offset" />
          </mxGeometry>
        </mxCell>
        <mxCell id="Lr7fWx6m4Q7cgu5vA2JN-51" style="rounded=0;orthogonalLoop=1;jettySize=auto;html=1;endArrow=openThin;endFill=0;edgeStyle=orthogonalEdgeStyle;dashed=1;" parent="1" source="Lr7fWx6m4Q7cgu5vA2JN-52" target="Lr7fWx6m4Q7cgu5vA2JN-101" edge="1">
          <mxGeometry relative="1" as="geometry">
            <mxPoint x="817" y="264" as="targetPoint" />
            <Array as="points">
              <mxPoint x="689" y="514" />
              <mxPoint x="689" y="514" />
            </Array>
          </mxGeometry>
        </mxCell>
        <mxCell id="Lr7fWx6m4Q7cgu5vA2JN-52" value="&lt;span style=&quot;font-size: 12px&quot;&gt;Retrospective&lt;/span&gt;" style="swimlane;fontStyle=1;align=center;verticalAlign=middle;childLayout=stackLayout;horizontal=1;startSize=29;horizontalStack=0;resizeParent=1;resizeParentMax=0;resizeLast=0;collapsible=0;marginBottom=0;html=1;shadow=0;fontSize=12;labelPosition=center;verticalLabelPosition=middle;container=0;" parent="1" vertex="1">
          <mxGeometry x="646" y="324" width="150" height="159" as="geometry" />
        </mxCell>
        <mxCell id="Lr7fWx6m4Q7cgu5vA2JN-53" value="- id: Long" style="text;strokeColor=none;fillColor=none;align=left;verticalAlign=top;spacingLeft=4;spacingRight=4;overflow=hidden;rotatable=0;points=[[0,0.5],[1,0.5]];portConstraint=eastwest;container=0;" parent="Lr7fWx6m4Q7cgu5vA2JN-52" vertex="1">
          <mxGeometry y="29" width="150" height="26" as="geometry" />
        </mxCell>
        <mxCell id="Lr7fWx6m4Q7cgu5vA2JN-54" value="- date : Date" style="text;strokeColor=none;fillColor=none;align=left;verticalAlign=top;spacingLeft=4;spacingRight=4;overflow=hidden;rotatable=0;points=[[0,0.5],[1,0.5]];portConstraint=eastwest;container=0;" parent="Lr7fWx6m4Q7cgu5vA2JN-52" vertex="1">
          <mxGeometry y="55" width="150" height="26" as="geometry" />
        </mxCell>
        <mxCell id="Lr7fWx6m4Q7cgu5vA2JN-55" value="- date : Date" style="text;strokeColor=none;fillColor=none;align=left;verticalAlign=top;spacingLeft=4;spacingRight=4;overflow=hidden;rotatable=0;points=[[0,0.5],[1,0.5]];portConstraint=eastwest;container=0;" parent="Lr7fWx6m4Q7cgu5vA2JN-52" vertex="1">
          <mxGeometry y="81" width="150" height="26" as="geometry" />
        </mxCell>
        <mxCell id="Lr7fWx6m4Q7cgu5vA2JN-56" value="- problem : String" style="text;strokeColor=none;fillColor=none;align=left;verticalAlign=top;spacingLeft=4;spacingRight=4;overflow=hidden;rotatable=0;points=[[0,0.5],[1,0.5]];portConstraint=eastwest;container=0;" parent="Lr7fWx6m4Q7cgu5vA2JN-52" vertex="1">
          <mxGeometry y="107" width="150" height="26" as="geometry" />
        </mxCell>
        <mxCell id="Lr7fWx6m4Q7cgu5vA2JN-57" value="- decision : String" style="text;strokeColor=none;fillColor=none;align=left;verticalAlign=top;spacingLeft=4;spacingRight=4;overflow=hidden;rotatable=0;points=[[0,0.5],[1,0.5]];portConstraint=eastwest;container=0;" parent="Lr7fWx6m4Q7cgu5vA2JN-52" vertex="1">
          <mxGeometry y="133" width="150" height="26" as="geometry" />
        </mxCell>
        <mxCell id="Lr7fWx6m4Q7cgu5vA2JN-58" value="" style="edgeStyle=orthogonalEdgeStyle;rounded=0;orthogonalLoop=1;jettySize=auto;html=1;endArrow=none;endFill=0;" parent="1" source="Lr7fWx6m4Q7cgu5vA2JN-61" target="Lr7fWx6m4Q7cgu5vA2JN-154" edge="1">
          <mxGeometry relative="1" as="geometry">
            <Array as="points">
              <mxPoint x="-446" y="352" />
              <mxPoint x="-446" y="352" />
            </Array>
          </mxGeometry>
        </mxCell>
        <mxCell id="Lr7fWx6m4Q7cgu5vA2JN-59" value="1..*" style="edgeLabel;html=1;align=center;verticalAlign=middle;resizable=0;points=[];labelBackgroundColor=none;" parent="Lr7fWx6m4Q7cgu5vA2JN-58" vertex="1" connectable="0">
          <mxGeometry x="0.6864" relative="1" as="geometry">
            <mxPoint x="8" y="-5" as="offset" />
          </mxGeometry>
        </mxCell>
        <mxCell id="Lr7fWx6m4Q7cgu5vA2JN-60" value="1..1" style="edgeLabel;html=1;align=center;verticalAlign=middle;resizable=0;points=[];labelBackgroundColor=none;" parent="Lr7fWx6m4Q7cgu5vA2JN-58" vertex="1" connectable="0">
          <mxGeometry x="-0.8243" relative="1" as="geometry">
            <mxPoint x="-1" y="-5" as="offset" />
          </mxGeometry>
        </mxCell>
        <mxCell id="Lr7fWx6m4Q7cgu5vA2JN-61" value="Facture" style="swimlane;fontStyle=1;align=center;verticalAlign=middle;childLayout=stackLayout;horizontal=1;startSize=29;horizontalStack=0;resizeParent=1;resizeParentMax=0;resizeLast=0;collapsible=0;marginBottom=0;html=1;fontSize=12;labelPosition=center;verticalLabelPosition=middle;container=0;" parent="1" vertex="1">
          <mxGeometry x="-643" y="324" width="150" height="55" as="geometry" />
        </mxCell>
        <mxCell id="Lr7fWx6m4Q7cgu5vA2JN-62" value="- id: Long" style="text;strokeColor=none;fillColor=none;align=left;verticalAlign=top;spacingLeft=4;spacingRight=4;overflow=hidden;rotatable=0;points=[[0,0.5],[1,0.5]];portConstraint=eastwest;container=0;" parent="Lr7fWx6m4Q7cgu5vA2JN-61" vertex="1">
          <mxGeometry y="29" width="150" height="26" as="geometry" />
        </mxCell>
        <mxCell id="Lr7fWx6m4Q7cgu5vA2JN-63" style="shape=connector;rounded=0;sketch=0;orthogonalLoop=1;jettySize=auto;html=1;shadow=0;labelBackgroundColor=default;fontFamily=Helvetica;fontSize=12;fontColor=default;startArrow=none;startFill=0;endArrow=none;endFill=0;strokeColor=default;edgeStyle=orthogonalEdgeStyle;" parent="1" source="Lr7fWx6m4Q7cgu5vA2JN-66" target="Lr7fWx6m4Q7cgu5vA2JN-9" edge="1">
          <mxGeometry relative="1" as="geometry">
            <mxPoint x="459" y="201.0588235294117" as="targetPoint" />
            <mxPoint x="905" y="323" as="sourcePoint" />
            <Array as="points">
              <mxPoint x="898" y="202" />
            </Array>
          </mxGeometry>
        </mxCell>
        <mxCell id="Lr7fWx6m4Q7cgu5vA2JN-64" value="1..1" style="edgeLabel;html=1;align=center;verticalAlign=middle;resizable=0;points=[];fontSize=12;fontFamily=Helvetica;fontColor=default;labelBackgroundColor=none;container=0;" parent="Lr7fWx6m4Q7cgu5vA2JN-63" vertex="1" connectable="0">
          <mxGeometry x="0.9105" y="1" relative="1" as="geometry">
            <mxPoint x="-16" y="-7" as="offset" />
          </mxGeometry>
        </mxCell>
        <mxCell id="Lr7fWx6m4Q7cgu5vA2JN-65" value="1..*" style="edgeLabel;html=1;align=center;verticalAlign=middle;resizable=0;points=[];fontSize=12;fontFamily=Helvetica;fontColor=default;labelBackgroundColor=none;container=0;" parent="Lr7fWx6m4Q7cgu5vA2JN-63" vertex="1" connectable="0">
          <mxGeometry x="-0.5035" y="-1" relative="1" as="geometry">
            <mxPoint x="29" y="116" as="offset" />
          </mxGeometry>
        </mxCell>
        <mxCell id="Lr7fWx6m4Q7cgu5vA2JN-66" value="Stakeholder" style="swimlane;fontStyle=1;align=center;verticalAlign=middle;childLayout=stackLayout;horizontal=1;startSize=29;horizontalStack=0;resizeParent=1;resizeParentMax=0;resizeLast=0;collapsible=0;marginBottom=0;html=1;shadow=0;fontSize=12;labelPosition=center;verticalLabelPosition=middle;container=0;" parent="1" vertex="1">
          <mxGeometry x="827" y="324" width="150" height="81" as="geometry" />
        </mxCell>
        <mxCell id="Lr7fWx6m4Q7cgu5vA2JN-67" value="- id: Long" style="text;strokeColor=none;fillColor=none;align=left;verticalAlign=top;spacingLeft=4;spacingRight=4;overflow=hidden;rotatable=0;points=[[0,0.5],[1,0.5]];portConstraint=eastwest;container=0;" parent="Lr7fWx6m4Q7cgu5vA2JN-66" vertex="1">
          <mxGeometry y="29" width="150" height="26" as="geometry" />
        </mxCell>
        <mxCell id="Lr7fWx6m4Q7cgu5vA2JN-68" value="- name: String" style="text;strokeColor=none;fillColor=none;align=left;verticalAlign=top;spacingLeft=4;spacingRight=4;overflow=hidden;rotatable=0;points=[[0,0.5],[1,0.5]];portConstraint=eastwest;container=0;" parent="Lr7fWx6m4Q7cgu5vA2JN-66" vertex="1">
          <mxGeometry y="55" width="150" height="26" as="geometry" />
        </mxCell>
        <mxCell id="Lr7fWx6m4Q7cgu5vA2JN-69" value="" style="rounded=0;orthogonalLoop=1;jettySize=auto;html=1;endArrow=none;endFill=0;edgeStyle=orthogonalEdgeStyle;" parent="1" source="Lr7fWx6m4Q7cgu5vA2JN-189" target="Lr7fWx6m4Q7cgu5vA2JN-75" edge="1">
          <mxGeometry relative="1" as="geometry">
            <Array as="points">
              <mxPoint x="294" y="700" />
              <mxPoint x="294" y="700" />
            </Array>
          </mxGeometry>
        </mxCell>
        <mxCell id="Lr7fWx6m4Q7cgu5vA2JN-70" value="1..1" style="edgeLabel;html=1;align=center;verticalAlign=middle;resizable=0;points=[];labelBackgroundColor=none;" parent="Lr7fWx6m4Q7cgu5vA2JN-69" vertex="1" connectable="0">
          <mxGeometry x="-0.7239" y="1" relative="1" as="geometry">
            <mxPoint x="8" y="-2" as="offset" />
          </mxGeometry>
        </mxCell>
        <mxCell id="Lr7fWx6m4Q7cgu5vA2JN-71" value="1..1" style="edgeLabel;html=1;align=center;verticalAlign=middle;resizable=0;points=[];labelBackgroundColor=none;" parent="Lr7fWx6m4Q7cgu5vA2JN-69" vertex="1" connectable="0">
          <mxGeometry x="0.8173" y="1" relative="1" as="geometry">
            <mxPoint x="8" y="-1" as="offset" />
          </mxGeometry>
        </mxCell>
        <mxCell id="Lr7fWx6m4Q7cgu5vA2JN-72" style="edgeStyle=orthogonalEdgeStyle;shape=connector;rounded=0;sketch=0;orthogonalLoop=1;jettySize=auto;html=1;shadow=0;labelBackgroundColor=default;fontFamily=Helvetica;fontSize=12;fontColor=default;startArrow=none;startFill=0;endArrow=none;endFill=0;strokeColor=default;jumpStyle=none;" parent="1" source="Lr7fWx6m4Q7cgu5vA2JN-183" target="Lr7fWx6m4Q7cgu5vA2JN-189" edge="1">
          <mxGeometry relative="1" as="geometry">
            <mxPoint x="651" y="540.461" as="targetPoint" />
            <mxPoint x="656" y="504" as="sourcePoint" />
            <Array as="points">
              <mxPoint x="347" y="546" />
              <mxPoint x="290" y="546" />
            </Array>
          </mxGeometry>
        </mxCell>
        <mxCell id="Lr7fWx6m4Q7cgu5vA2JN-73" value="1..*" style="edgeLabel;html=1;align=center;verticalAlign=middle;resizable=0;points=[];fontSize=12;fontFamily=Helvetica;fontColor=default;labelBackgroundColor=none;container=0;" parent="Lr7fWx6m4Q7cgu5vA2JN-72" vertex="1" connectable="0">
          <mxGeometry x="0.802" y="-1" relative="1" as="geometry">
            <mxPoint x="11" y="5" as="offset" />
          </mxGeometry>
        </mxCell>
        <mxCell id="Lr7fWx6m4Q7cgu5vA2JN-74" value="1..1" style="edgeLabel;html=1;align=center;verticalAlign=middle;resizable=0;points=[];fontSize=12;fontFamily=Helvetica;fontColor=default;labelBackgroundColor=none;container=0;" parent="Lr7fWx6m4Q7cgu5vA2JN-72" vertex="1" connectable="0">
          <mxGeometry x="-0.7558" y="1" relative="1" as="geometry">
            <mxPoint x="9" y="-4" as="offset" />
          </mxGeometry>
        </mxCell>
        <mxCell id="Lr7fWx6m4Q7cgu5vA2JN-75" value="Epic" style="swimlane;fontStyle=1;align=center;verticalAlign=middle;childLayout=stackLayout;horizontal=1;startSize=29;horizontalStack=0;resizeParent=1;resizeParentMax=0;resizeLast=0;collapsible=0;marginBottom=0;html=1;fontSize=12;labelPosition=center;verticalLabelPosition=middle;container=0;" parent="1" vertex="1">
          <mxGeometry x="215" y="730.5" width="150" height="81" as="geometry" />
        </mxCell>
        <mxCell id="Lr7fWx6m4Q7cgu5vA2JN-76" value="- id: Long" style="text;strokeColor=none;fillColor=none;align=left;verticalAlign=top;spacingLeft=4;spacingRight=4;overflow=hidden;rotatable=0;points=[[0,0.5],[1,0.5]];portConstraint=eastwest;container=0;" parent="Lr7fWx6m4Q7cgu5vA2JN-75" vertex="1">
          <mxGeometry y="29" width="150" height="26" as="geometry" />
        </mxCell>
        <mxCell id="Lr7fWx6m4Q7cgu5vA2JN-77" value="- epic : String" style="text;strokeColor=none;fillColor=none;align=left;verticalAlign=top;spacingLeft=4;spacingRight=4;overflow=hidden;rotatable=0;points=[[0,0.5],[1,0.5]];portConstraint=eastwest;container=0;" parent="Lr7fWx6m4Q7cgu5vA2JN-75" vertex="1">
          <mxGeometry y="55" width="150" height="26" as="geometry" />
        </mxCell>
        <mxCell id="Lr7fWx6m4Q7cgu5vA2JN-78" style="shape=connector;rounded=0;sketch=0;jumpStyle=none;orthogonalLoop=1;jettySize=auto;html=1;shadow=0;labelBackgroundColor=default;fontFamily=Helvetica;fontSize=12;fontColor=default;startArrow=none;startFill=0;endArrow=none;endFill=0;strokeColor=default;edgeStyle=orthogonalEdgeStyle;" parent="1" source="Lr7fWx6m4Q7cgu5vA2JN-186" target="Lr7fWx6m4Q7cgu5vA2JN-183" edge="1">
          <mxGeometry relative="1" as="geometry">
            <Array as="points">
              <mxPoint x="500" y="546" />
              <mxPoint x="436" y="546" />
            </Array>
          </mxGeometry>
        </mxCell>
        <mxCell id="Lr7fWx6m4Q7cgu5vA2JN-79" value="1..1" style="edgeLabel;html=1;align=center;verticalAlign=middle;resizable=0;points=[];fontSize=12;fontFamily=Helvetica;fontColor=default;labelBackgroundColor=none;container=0;" parent="Lr7fWx6m4Q7cgu5vA2JN-78" vertex="1" connectable="0">
          <mxGeometry x="-0.6492" relative="1" as="geometry">
            <mxPoint x="10" y="11" as="offset" />
          </mxGeometry>
        </mxCell>
        <mxCell id="Lr7fWx6m4Q7cgu5vA2JN-80" value="1..1" style="edgeLabel;html=1;align=center;verticalAlign=middle;resizable=0;points=[];fontSize=12;fontFamily=Helvetica;fontColor=default;labelBackgroundColor=none;container=0;" parent="Lr7fWx6m4Q7cgu5vA2JN-78" vertex="1" connectable="0">
          <mxGeometry x="0.6599" relative="1" as="geometry">
            <mxPoint x="10" y="-6" as="offset" />
          </mxGeometry>
        </mxCell>
        <mxCell id="Lr7fWx6m4Q7cgu5vA2JN-84" value="&amp;lt;&amp;lt;enum&amp;gt;&amp;gt; &lt;br&gt;ProjetPriorite" style="swimlane;fontStyle=1;align=center;verticalAlign=middle;childLayout=stackLayout;horizontal=1;startSize=26;horizontalStack=0;resizeParent=1;resizeParentMax=0;resizeLast=0;collapsible=0;marginBottom=0;html=1;shadow=0;fontSize=12;labelPosition=center;verticalLabelPosition=middle;container=0;" parent="1" vertex="1">
          <mxGeometry x="-10" y="22" width="150" height="78" as="geometry" />
        </mxCell>
        <mxCell id="Lr7fWx6m4Q7cgu5vA2JN-85" value="critical" style="text;strokeColor=none;fillColor=none;align=left;verticalAlign=top;spacingLeft=4;spacingRight=4;overflow=hidden;rotatable=0;points=[[0,0.5],[1,0.5]];portConstraint=eastwest;container=0;" parent="Lr7fWx6m4Q7cgu5vA2JN-84" vertex="1">
          <mxGeometry y="26" width="150" height="26" as="geometry" />
        </mxCell>
        <mxCell id="Lr7fWx6m4Q7cgu5vA2JN-86" value="minor" style="text;strokeColor=none;fillColor=none;align=left;verticalAlign=top;spacingLeft=4;spacingRight=4;overflow=hidden;rotatable=0;points=[[0,0.5],[1,0.5]];portConstraint=eastwest;container=0;" parent="Lr7fWx6m4Q7cgu5vA2JN-84" vertex="1">
          <mxGeometry y="52" width="150" height="26" as="geometry" />
        </mxCell>
        <mxCell id="Lr7fWx6m4Q7cgu5vA2JN-87" value="&amp;lt;&amp;lt;enum&amp;gt;&amp;gt;&lt;br&gt;affaireType" style="swimlane;fontStyle=1;align=center;verticalAlign=middle;childLayout=stackLayout;horizontal=1;startSize=26;horizontalStack=0;resizeParent=1;resizeParentMax=0;resizeLast=0;collapsible=0;marginBottom=0;html=1;shadow=0;fontSize=12;labelPosition=center;verticalLabelPosition=middle;container=0;" parent="1" vertex="1">
          <mxGeometry x="-10" y="160" width="150" height="78" as="geometry" />
        </mxCell>
        <mxCell id="Lr7fWx6m4Q7cgu5vA2JN-88" value="fixedPrice" style="text;strokeColor=none;fillColor=none;align=left;verticalAlign=top;spacingLeft=4;spacingRight=4;overflow=hidden;rotatable=0;points=[[0,0.5],[1,0.5]];portConstraint=eastwest;container=0;" parent="Lr7fWx6m4Q7cgu5vA2JN-87" vertex="1">
          <mxGeometry y="26" width="150" height="26" as="geometry" />
        </mxCell>
        <mxCell id="Lr7fWx6m4Q7cgu5vA2JN-89" value="..." style="text;strokeColor=none;fillColor=none;align=left;verticalAlign=top;spacingLeft=4;spacingRight=4;overflow=hidden;rotatable=0;points=[[0,0.5],[1,0.5]];portConstraint=eastwest;container=0;" parent="Lr7fWx6m4Q7cgu5vA2JN-87" vertex="1">
          <mxGeometry y="52" width="150" height="26" as="geometry" />
        </mxCell>
        <mxCell id="Lr7fWx6m4Q7cgu5vA2JN-90" value="&amp;lt;&amp;lt;enum&amp;gt;&amp;gt; &lt;br&gt;StatutCalendrier" style="swimlane;fontStyle=1;align=center;verticalAlign=middle;childLayout=stackLayout;horizontal=1;startSize=26;horizontalStack=0;resizeParent=1;resizeParentMax=0;resizeLast=0;collapsible=0;marginBottom=0;html=1;shadow=0;fontSize=12;labelPosition=center;verticalLabelPosition=middle;container=0;" parent="1" vertex="1">
          <mxGeometry x="486" y="325" width="130" height="78" as="geometry" />
        </mxCell>
        <mxCell id="Lr7fWx6m4Q7cgu5vA2JN-91" value="delivered" style="text;strokeColor=none;fillColor=none;align=left;verticalAlign=top;spacingLeft=4;spacingRight=4;overflow=hidden;rotatable=0;points=[[0,0.5],[1,0.5]];portConstraint=eastwest;container=0;" parent="Lr7fWx6m4Q7cgu5vA2JN-90" vertex="1">
          <mxGeometry y="26" width="130" height="26" as="geometry" />
        </mxCell>
        <mxCell id="Lr7fWx6m4Q7cgu5vA2JN-92" value="inProgess" style="text;strokeColor=none;fillColor=none;align=left;verticalAlign=top;spacingLeft=4;spacingRight=4;overflow=hidden;rotatable=0;points=[[0,0.5],[1,0.5]];portConstraint=eastwest;container=0;" parent="Lr7fWx6m4Q7cgu5vA2JN-90" vertex="1">
          <mxGeometry y="52" width="130" height="26" as="geometry" />
        </mxCell>
        <mxCell id="Lr7fWx6m4Q7cgu5vA2JN-93" value="&amp;lt;&amp;lt;enum&amp;gt;&amp;gt;&lt;br&gt;ActionStatut" style="swimlane;fontStyle=1;align=center;verticalAlign=middle;childLayout=stackLayout;horizontal=1;startSize=29;horizontalStack=0;resizeParent=1;resizeParentMax=0;resizeLast=0;collapsible=0;marginBottom=0;html=1;fontSize=12;labelPosition=center;verticalLabelPosition=middle;container=0;" parent="1" vertex="1">
          <mxGeometry x="425" y="690" width="150" height="81" as="geometry" />
        </mxCell>
        <mxCell id="Lr7fWx6m4Q7cgu5vA2JN-94" value="inProgress" style="text;strokeColor=none;fillColor=none;align=left;verticalAlign=top;spacingLeft=4;spacingRight=4;overflow=hidden;rotatable=0;points=[[0,0.5],[1,0.5]];portConstraint=eastwest;container=0;" parent="Lr7fWx6m4Q7cgu5vA2JN-93" vertex="1">
          <mxGeometry y="29" width="150" height="26" as="geometry" />
        </mxCell>
        <mxCell id="Lr7fWx6m4Q7cgu5vA2JN-95" value="delivered" style="text;strokeColor=none;fillColor=none;align=left;verticalAlign=top;spacingLeft=4;spacingRight=4;overflow=hidden;rotatable=0;points=[[0,0.5],[1,0.5]];portConstraint=eastwest;container=0;" parent="Lr7fWx6m4Q7cgu5vA2JN-93" vertex="1">
          <mxGeometry y="55" width="150" height="26" as="geometry" />
        </mxCell>
        <mxCell id="Lr7fWx6m4Q7cgu5vA2JN-96" value="&amp;lt;&amp;lt;enum&amp;gt;&amp;gt;&lt;br&gt;Sujet" style="swimlane;fontStyle=1;align=center;verticalAlign=middle;childLayout=stackLayout;horizontal=1;startSize=29;horizontalStack=0;resizeParent=1;resizeParentMax=0;resizeLast=0;collapsible=0;marginBottom=0;html=1;fontSize=12;labelPosition=center;verticalLabelPosition=middle;container=0;" parent="1" vertex="1">
          <mxGeometry x="782" y="565" width="150" height="107" as="geometry" />
        </mxCell>
        <mxCell id="Lr7fWx6m4Q7cgu5vA2JN-97" value="Scope&#xa;" style="text;strokeColor=none;fillColor=none;align=left;verticalAlign=top;spacingLeft=4;spacingRight=4;overflow=hidden;rotatable=0;points=[[0,0.5],[1,0.5]];portConstraint=eastwest;container=0;" parent="Lr7fWx6m4Q7cgu5vA2JN-96" vertex="1">
          <mxGeometry y="29" width="150" height="26" as="geometry" />
        </mxCell>
        <mxCell id="Lr7fWx6m4Q7cgu5vA2JN-98" value="Technical skills" style="text;strokeColor=none;fillColor=none;align=left;verticalAlign=top;spacingLeft=4;spacingRight=4;overflow=hidden;rotatable=0;points=[[0,0.5],[1,0.5]];portConstraint=eastwest;container=0;" parent="Lr7fWx6m4Q7cgu5vA2JN-96" vertex="1">
          <mxGeometry y="55" width="150" height="26" as="geometry" />
        </mxCell>
        <mxCell id="Lr7fWx6m4Q7cgu5vA2JN-99" value="Resourcing" style="text;strokeColor=none;fillColor=none;align=left;verticalAlign=top;spacingLeft=4;spacingRight=4;overflow=hidden;rotatable=0;points=[[0,0.5],[1,0.5]];portConstraint=eastwest;container=0;" parent="Lr7fWx6m4Q7cgu5vA2JN-96" vertex="1">
          <mxGeometry y="81" width="150" height="26" as="geometry" />
        </mxCell>
        <mxCell id="Lr7fWx6m4Q7cgu5vA2JN-100" style="rounded=0;orthogonalLoop=1;jettySize=auto;html=1;endArrow=openThin;endFill=0;edgeStyle=orthogonalEdgeStyle;dashed=1;" parent="1" source="Lr7fWx6m4Q7cgu5vA2JN-52" target="Lr7fWx6m4Q7cgu5vA2JN-96" edge="1">
          <mxGeometry relative="1" as="geometry">
            <mxPoint x="761" y="153" as="sourcePoint" />
            <mxPoint x="821" y="181" as="targetPoint" />
            <Array as="points">
              <mxPoint x="857" y="466" />
            </Array>
          </mxGeometry>
        </mxCell>
        <mxCell id="Lr7fWx6m4Q7cgu5vA2JN-101" value="&amp;lt;&amp;lt;enum&amp;gt;&amp;gt;&lt;br&gt;RetrospectivePriorite" style="swimlane;fontStyle=1;align=center;verticalAlign=middle;childLayout=stackLayout;horizontal=1;startSize=29;horizontalStack=0;resizeParent=1;resizeParentMax=0;resizeLast=0;collapsible=0;marginBottom=0;html=1;fontSize=12;labelPosition=center;verticalLabelPosition=middle;container=0;" parent="1" vertex="1">
          <mxGeometry x="614" y="565" width="150" height="107" as="geometry" />
        </mxCell>
        <mxCell id="Lr7fWx6m4Q7cgu5vA2JN-102" value="Medium" style="text;strokeColor=none;fillColor=none;align=left;verticalAlign=top;spacingLeft=4;spacingRight=4;overflow=hidden;rotatable=0;points=[[0,0.5],[1,0.5]];portConstraint=eastwest;container=0;" parent="Lr7fWx6m4Q7cgu5vA2JN-101" vertex="1">
          <mxGeometry y="29" width="150" height="26" as="geometry" />
        </mxCell>
        <mxCell id="Lr7fWx6m4Q7cgu5vA2JN-103" value="High" style="text;strokeColor=none;fillColor=none;align=left;verticalAlign=top;spacingLeft=4;spacingRight=4;overflow=hidden;rotatable=0;points=[[0,0.5],[1,0.5]];portConstraint=eastwest;container=0;" parent="Lr7fWx6m4Q7cgu5vA2JN-101" vertex="1">
          <mxGeometry y="55" width="150" height="26" as="geometry" />
        </mxCell>
        <mxCell id="Lr7fWx6m4Q7cgu5vA2JN-104" value="Low" style="text;strokeColor=none;fillColor=none;align=left;verticalAlign=top;spacingLeft=4;spacingRight=4;overflow=hidden;rotatable=0;points=[[0,0.5],[1,0.5]];portConstraint=eastwest;container=0;" parent="Lr7fWx6m4Q7cgu5vA2JN-101" vertex="1">
          <mxGeometry y="81" width="150" height="26" as="geometry" />
        </mxCell>
        <mxCell id="Lr7fWx6m4Q7cgu5vA2JN-105" style="edgeStyle=orthogonalEdgeStyle;rounded=0;orthogonalLoop=1;jettySize=auto;html=1;endArrow=openThin;endFill=0;startArrow=none;dashed=1;" parent="1" source="Lr7fWx6m4Q7cgu5vA2JN-189" target="Lr7fWx6m4Q7cgu5vA2JN-93" edge="1">
          <mxGeometry relative="1" as="geometry">
            <mxPoint x="750" y="589" as="sourcePoint" />
            <mxPoint x="817" y="565" as="targetPoint" />
            <Array as="points">
              <mxPoint x="500" y="657" />
            </Array>
          </mxGeometry>
        </mxCell>
        <mxCell id="Lr7fWx6m4Q7cgu5vA2JN-106" value="&lt;span style=&quot;font-size: 12px&quot;&gt;&amp;lt;&amp;lt;enum&amp;gt;&amp;gt;&lt;br&gt;RisqueStatut&lt;br&gt;&lt;/span&gt;" style="swimlane;fontStyle=1;align=center;verticalAlign=middle;childLayout=stackLayout;horizontal=1;startSize=29;horizontalStack=0;resizeParent=1;resizeParentMax=0;resizeLast=0;collapsible=0;marginBottom=0;html=1;shadow=0;fontSize=12;labelPosition=center;verticalLabelPosition=middle;container=0;" parent="1" vertex="1">
          <mxGeometry x="36" y="690" width="150" height="81" as="geometry" />
        </mxCell>
        <mxCell id="Lr7fWx6m4Q7cgu5vA2JN-107" value="Open" style="text;strokeColor=none;fillColor=none;align=left;verticalAlign=top;spacingLeft=4;spacingRight=4;overflow=hidden;rotatable=0;points=[[0,0.5],[1,0.5]];portConstraint=eastwest;container=0;" parent="Lr7fWx6m4Q7cgu5vA2JN-106" vertex="1">
          <mxGeometry y="29" width="150" height="26" as="geometry" />
        </mxCell>
        <mxCell id="Lr7fWx6m4Q7cgu5vA2JN-108" value="Closed" style="text;strokeColor=none;fillColor=none;align=left;verticalAlign=top;spacingLeft=4;spacingRight=4;overflow=hidden;rotatable=0;points=[[0,0.5],[1,0.5]];portConstraint=eastwest;container=0;" parent="Lr7fWx6m4Q7cgu5vA2JN-106" vertex="1">
          <mxGeometry y="55" width="150" height="26" as="geometry" />
        </mxCell>
        <mxCell id="Lr7fWx6m4Q7cgu5vA2JN-109" style="rounded=0;orthogonalLoop=1;jettySize=auto;html=1;endArrow=openThin;endFill=0;edgeStyle=orthogonalEdgeStyle;dashed=1;" parent="1" source="Lr7fWx6m4Q7cgu5vA2JN-172" target="Lr7fWx6m4Q7cgu5vA2JN-90" edge="1">
          <mxGeometry relative="1" as="geometry">
            <Array as="points">
              <mxPoint x="476" y="363" />
              <mxPoint x="476" y="364" />
            </Array>
          </mxGeometry>
        </mxCell>
        <mxCell id="Lr7fWx6m4Q7cgu5vA2JN-110" style="edgeStyle=orthogonalEdgeStyle;rounded=0;orthogonalLoop=1;jettySize=auto;html=1;endArrow=openThin;endFill=0;dashed=1;" parent="1" source="Lr7fWx6m4Q7cgu5vA2JN-175" target="Lr7fWx6m4Q7cgu5vA2JN-106" edge="1">
          <mxGeometry relative="1" as="geometry">
            <Array as="points">
              <mxPoint x="124" y="678" />
              <mxPoint x="124" y="678" />
            </Array>
          </mxGeometry>
        </mxCell>
        <mxCell id="Lr7fWx6m4Q7cgu5vA2JN-111" value="&lt;span style=&quot;font-size: 12px&quot;&gt;&amp;lt;&amp;lt;enum&amp;gt;&amp;gt;&lt;br&gt;ChangeType&lt;br&gt;&lt;/span&gt;" style="swimlane;fontStyle=1;align=center;verticalAlign=middle;childLayout=stackLayout;horizontal=1;startSize=29;horizontalStack=0;resizeParent=1;resizeParentMax=0;resizeLast=0;collapsible=0;marginBottom=0;html=1;shadow=0;fontSize=12;labelPosition=center;verticalLabelPosition=middle;container=0;" parent="1" vertex="1">
          <mxGeometry x="-63" y="565" width="150" height="81" as="geometry" />
        </mxCell>
        <mxCell id="Lr7fWx6m4Q7cgu5vA2JN-112" value="Standard" style="text;strokeColor=none;fillColor=none;align=left;verticalAlign=top;spacingLeft=4;spacingRight=4;overflow=hidden;rotatable=0;points=[[0,0.5],[1,0.5]];portConstraint=eastwest;container=0;" parent="Lr7fWx6m4Q7cgu5vA2JN-111" vertex="1">
          <mxGeometry y="29" width="150" height="26" as="geometry" />
        </mxCell>
        <mxCell id="Lr7fWx6m4Q7cgu5vA2JN-113" value="Major" style="text;strokeColor=none;fillColor=none;align=left;verticalAlign=top;spacingLeft=4;spacingRight=4;overflow=hidden;rotatable=0;points=[[0,0.5],[1,0.5]];portConstraint=eastwest;container=0;" parent="Lr7fWx6m4Q7cgu5vA2JN-111" vertex="1">
          <mxGeometry y="55" width="150" height="26" as="geometry" />
        </mxCell>
        <mxCell id="Lr7fWx6m4Q7cgu5vA2JN-114" value="&lt;span style=&quot;font-size: 12px&quot;&gt;&amp;lt;&amp;lt;enum&amp;gt;&amp;gt;&lt;br&gt;ChangeStatut&lt;br&gt;&lt;/span&gt;" style="swimlane;fontStyle=1;align=center;verticalAlign=middle;childLayout=stackLayout;horizontal=1;startSize=29;horizontalStack=0;resizeParent=1;resizeParentMax=0;resizeLast=0;collapsible=0;marginBottom=0;html=1;shadow=0;fontSize=12;labelPosition=center;verticalLabelPosition=middle;container=0;" parent="1" vertex="1">
          <mxGeometry x="-224" y="565" width="150" height="81" as="geometry" />
        </mxCell>
        <mxCell id="Lr7fWx6m4Q7cgu5vA2JN-115" value="Approved" style="text;strokeColor=none;fillColor=none;align=left;verticalAlign=top;spacingLeft=4;spacingRight=4;overflow=hidden;rotatable=0;points=[[0,0.5],[1,0.5]];portConstraint=eastwest;container=0;" parent="Lr7fWx6m4Q7cgu5vA2JN-114" vertex="1">
          <mxGeometry y="29" width="150" height="26" as="geometry" />
        </mxCell>
        <mxCell id="Lr7fWx6m4Q7cgu5vA2JN-116" value="Pending" style="text;strokeColor=none;fillColor=none;align=left;verticalAlign=top;spacingLeft=4;spacingRight=4;overflow=hidden;rotatable=0;points=[[0,0.5],[1,0.5]];portConstraint=eastwest;container=0;" parent="Lr7fWx6m4Q7cgu5vA2JN-114" vertex="1">
          <mxGeometry y="55" width="150" height="26" as="geometry" />
        </mxCell>
        <mxCell id="Lr7fWx6m4Q7cgu5vA2JN-117" style="rounded=0;orthogonalLoop=1;jettySize=auto;html=1;endArrow=none;endFill=0;edgeStyle=orthogonalEdgeStyle;" parent="1" source="Lr7fWx6m4Q7cgu5vA2JN-39" target="Lr7fWx6m4Q7cgu5vA2JN-23" edge="1">
          <mxGeometry relative="1" as="geometry">
            <Array as="points">
              <mxPoint x="-92" y="-20" />
            </Array>
            <mxPoint x="-75" y="348" as="sourcePoint" />
            <mxPoint x="613" y="-20" as="targetPoint" />
          </mxGeometry>
        </mxCell>
        <mxCell id="Lr7fWx6m4Q7cgu5vA2JN-118" value="1..1" style="edgeLabel;html=1;align=center;verticalAlign=middle;resizable=0;points=[];labelBackgroundColor=none;container=0;" parent="Lr7fWx6m4Q7cgu5vA2JN-117" vertex="1" connectable="0">
          <mxGeometry x="0.937" relative="1" as="geometry">
            <mxPoint x="22" y="-5" as="offset" />
          </mxGeometry>
        </mxCell>
        <mxCell id="Lr7fWx6m4Q7cgu5vA2JN-119" value="0..*" style="edgeLabel;html=1;align=center;verticalAlign=middle;resizable=0;points=[];labelBackgroundColor=none;" parent="Lr7fWx6m4Q7cgu5vA2JN-117" vertex="1" connectable="0">
          <mxGeometry x="-0.7919" y="-1" relative="1" as="geometry">
            <mxPoint x="8" y="103" as="offset" />
          </mxGeometry>
        </mxCell>
        <mxCell id="Lr7fWx6m4Q7cgu5vA2JN-120" style="rounded=0;orthogonalLoop=1;jettySize=auto;html=1;endArrow=none;endFill=0;edgeStyle=orthogonalEdgeStyle;" parent="1" source="Lr7fWx6m4Q7cgu5vA2JN-141" target="Lr7fWx6m4Q7cgu5vA2JN-23" edge="1">
          <mxGeometry relative="1" as="geometry">
            <Array as="points">
              <mxPoint x="1101" y="171" />
              <mxPoint x="742" y="171" />
            </Array>
          </mxGeometry>
        </mxCell>
        <mxCell id="Lr7fWx6m4Q7cgu5vA2JN-121" value="1..*" style="edgeLabel;html=1;align=center;verticalAlign=middle;resizable=0;points=[];labelBackgroundColor=none;container=0;" parent="Lr7fWx6m4Q7cgu5vA2JN-120" vertex="1" connectable="0">
          <mxGeometry x="-0.6498" y="-1" relative="1" as="geometry">
            <mxPoint x="9" y="91" as="offset" />
          </mxGeometry>
        </mxCell>
        <mxCell id="Lr7fWx6m4Q7cgu5vA2JN-122" value="1..1" style="edgeLabel;html=1;align=center;verticalAlign=middle;resizable=0;points=[];labelBackgroundColor=none;container=0;" parent="Lr7fWx6m4Q7cgu5vA2JN-120" vertex="1" connectable="0">
          <mxGeometry x="0.7106" relative="1" as="geometry">
            <mxPoint x="-3" y="-65" as="offset" />
          </mxGeometry>
        </mxCell>
        <mxCell id="Lr7fWx6m4Q7cgu5vA2JN-123" style="rounded=0;orthogonalLoop=1;jettySize=auto;html=1;endArrow=none;endFill=0;edgeStyle=orthogonalEdgeStyle;" parent="1" source="Lr7fWx6m4Q7cgu5vA2JN-9" target="Lr7fWx6m4Q7cgu5vA2JN-141" edge="1">
          <mxGeometry relative="1" as="geometry">
            <mxPoint x="456" y="181.05882352941194" as="sourcePoint" />
            <mxPoint x="1055.0588235294117" y="320" as="targetPoint" />
            <Array as="points">
              <mxPoint x="1055" y="182" />
            </Array>
          </mxGeometry>
        </mxCell>
        <mxCell id="Lr7fWx6m4Q7cgu5vA2JN-124" value="1..*" style="edgeLabel;html=1;align=center;verticalAlign=middle;resizable=0;points=[];labelBackgroundColor=none;container=0;" parent="Lr7fWx6m4Q7cgu5vA2JN-123" vertex="1" connectable="0">
          <mxGeometry x="0.9678" relative="1" as="geometry">
            <mxPoint x="13" y="3" as="offset" />
          </mxGeometry>
        </mxCell>
        <mxCell id="Lr7fWx6m4Q7cgu5vA2JN-125" value="1..1" style="edgeLabel;html=1;align=center;verticalAlign=middle;resizable=0;points=[];labelBackgroundColor=none;container=0;" parent="Lr7fWx6m4Q7cgu5vA2JN-123" vertex="1" connectable="0">
          <mxGeometry x="-0.9794" y="1" relative="1" as="geometry">
            <mxPoint x="2" y="-4" as="offset" />
          </mxGeometry>
        </mxCell>
        <mxCell id="Lr7fWx6m4Q7cgu5vA2JN-126" value="&amp;lt;&amp;lt;enum&amp;gt;&amp;gt;&lt;br&gt;Regime" style="swimlane;fontStyle=1;align=center;verticalAlign=middle;childLayout=stackLayout;horizontal=1;startSize=29;horizontalStack=0;resizeParent=1;resizeParentMax=0;resizeLast=0;collapsible=0;marginBottom=0;html=1;fontSize=12;labelPosition=center;verticalLabelPosition=middle;container=0;" parent="1" vertex="1">
          <mxGeometry x="1014" y="578" width="150" height="81" as="geometry" />
        </mxCell>
        <mxCell id="Lr7fWx6m4Q7cgu5vA2JN-127" value="Part Time" style="text;strokeColor=none;fillColor=none;align=left;verticalAlign=top;spacingLeft=4;spacingRight=4;overflow=hidden;rotatable=0;points=[[0,0.5],[1,0.5]];portConstraint=eastwest;container=0;" parent="Lr7fWx6m4Q7cgu5vA2JN-126" vertex="1">
          <mxGeometry y="29" width="150" height="26" as="geometry" />
        </mxCell>
        <mxCell id="Lr7fWx6m4Q7cgu5vA2JN-128" value="Full Time" style="text;strokeColor=none;fillColor=none;align=left;verticalAlign=top;spacingLeft=4;spacingRight=4;overflow=hidden;rotatable=0;points=[[0,0.5],[1,0.5]];portConstraint=eastwest;container=0;" parent="Lr7fWx6m4Q7cgu5vA2JN-126" vertex="1">
          <mxGeometry y="55" width="150" height="26" as="geometry" />
        </mxCell>
        <mxCell id="Lr7fWx6m4Q7cgu5vA2JN-129" style="edgeStyle=orthogonalEdgeStyle;rounded=0;orthogonalLoop=1;jettySize=auto;html=1;endArrow=openThin;endFill=0;dashed=1;" parent="1" source="Lr7fWx6m4Q7cgu5vA2JN-141" target="Lr7fWx6m4Q7cgu5vA2JN-126" edge="1">
          <mxGeometry relative="1" as="geometry">
            <mxPoint x="817" y="944" as="targetPoint" />
            <Array as="points">
              <mxPoint x="1093" y="532" />
              <mxPoint x="1093" y="532" />
            </Array>
          </mxGeometry>
        </mxCell>
        <mxCell id="Lr7fWx6m4Q7cgu5vA2JN-141" value="Planification" style="swimlane;fontStyle=1;align=center;verticalAlign=middle;childLayout=stackLayout;horizontal=1;startSize=29;horizontalStack=0;resizeParent=1;resizeParentMax=0;resizeLast=0;collapsible=0;marginBottom=0;html=1;fontSize=12;labelPosition=center;verticalLabelPosition=middle;container=0;" parent="1" vertex="1">
          <mxGeometry x="1022" y="324" width="150" height="159" as="geometry" />
        </mxCell>
        <mxCell id="Lr7fWx6m4Q7cgu5vA2JN-142" value="- id: Long" style="text;strokeColor=none;fillColor=none;align=left;verticalAlign=top;spacingLeft=4;spacingRight=4;overflow=hidden;rotatable=0;points=[[0,0.5],[1,0.5]];portConstraint=eastwest;container=0;" parent="Lr7fWx6m4Q7cgu5vA2JN-141" vertex="1">
          <mxGeometry y="29" width="150" height="26" as="geometry" />
        </mxCell>
        <mxCell id="Lr7fWx6m4Q7cgu5vA2JN-143" value="- bu : collection&lt;String&gt;" style="text;strokeColor=none;fillColor=none;align=left;verticalAlign=top;spacingLeft=4;spacingRight=4;overflow=hidden;rotatable=0;points=[[0,0.5],[1,0.5]];portConstraint=eastwest;container=0;" parent="Lr7fWx6m4Q7cgu5vA2JN-141" vertex="1">
          <mxGeometry y="55" width="150" height="26" as="geometry" />
        </mxCell>
        <mxCell id="Lr7fWx6m4Q7cgu5vA2JN-144" value="- startDate : Date" style="text;strokeColor=none;fillColor=none;align=left;verticalAlign=top;spacingLeft=4;spacingRight=4;overflow=hidden;rotatable=0;points=[[0,0.5],[1,0.5]];portConstraint=eastwest;container=0;" parent="Lr7fWx6m4Q7cgu5vA2JN-141" vertex="1">
          <mxGeometry y="81" width="150" height="26" as="geometry" />
        </mxCell>
        <mxCell id="Lr7fWx6m4Q7cgu5vA2JN-145" value="- endDate : Date" style="text;strokeColor=none;fillColor=none;align=left;verticalAlign=top;spacingLeft=4;spacingRight=4;overflow=hidden;rotatable=0;points=[[0,0.5],[1,0.5]];portConstraint=eastwest;container=0;" parent="Lr7fWx6m4Q7cgu5vA2JN-141" vertex="1">
          <mxGeometry y="107" width="150" height="26" as="geometry" />
        </mxCell>
        <mxCell id="Lr7fWx6m4Q7cgu5vA2JN-146" value="- effort : float" style="text;strokeColor=none;fillColor=none;align=left;verticalAlign=top;spacingLeft=4;spacingRight=4;overflow=hidden;rotatable=0;points=[[0,0.5],[1,0.5]];portConstraint=eastwest;container=0;" parent="Lr7fWx6m4Q7cgu5vA2JN-141" vertex="1">
          <mxGeometry y="133" width="150" height="26" as="geometry" />
        </mxCell>
        <mxCell id="Lr7fWx6m4Q7cgu5vA2JN-151" value="" style="group" parent="1" vertex="1" connectable="0">
          <mxGeometry x="-486" y="325" width="320" height="167" as="geometry" />
        </mxCell>
        <mxCell id="Lr7fWx6m4Q7cgu5vA2JN-152" value="CommandeInterne" style="swimlane;fontStyle=1;align=center;verticalAlign=middle;childLayout=stackLayout;horizontal=1;startSize=29;horizontalStack=0;resizeParent=1;resizeParentMax=0;resizeLast=0;collapsible=0;marginBottom=0;html=1;shadow=0;swimlaneLine=1;fontSize=12;labelPosition=center;verticalLabelPosition=middle;container=0;" parent="Lr7fWx6m4Q7cgu5vA2JN-151" vertex="1">
          <mxGeometry y="112" width="150" height="55" as="geometry" />
        </mxCell>
        <mxCell id="Lr7fWx6m4Q7cgu5vA2JN-153" value="CommandeClient" style="swimlane;fontStyle=1;align=center;verticalAlign=middle;childLayout=stackLayout;horizontal=1;startSize=29;horizontalStack=0;resizeParent=1;resizeParentMax=0;resizeLast=0;collapsible=0;marginBottom=0;html=1;shadow=0;swimlaneLine=1;fontSize=12;labelPosition=center;verticalLabelPosition=middle;container=0;" parent="Lr7fWx6m4Q7cgu5vA2JN-151" vertex="1">
          <mxGeometry x="170" y="112" width="150" height="55" as="geometry" />
        </mxCell>
        <mxCell id="Lr7fWx6m4Q7cgu5vA2JN-154" value="Commande" style="swimlane;fontStyle=1;align=center;verticalAlign=middle;childLayout=stackLayout;horizontal=1;startSize=29;horizontalStack=0;resizeParent=1;resizeParentMax=0;resizeLast=0;collapsible=0;marginBottom=0;html=1;shadow=0;swimlaneLine=1;fontSize=12;labelPosition=center;verticalLabelPosition=middle;container=0;" parent="Lr7fWx6m4Q7cgu5vA2JN-151" vertex="1">
          <mxGeometry x="105" width="150" height="81" as="geometry" />
        </mxCell>
        <mxCell id="Lr7fWx6m4Q7cgu5vA2JN-155" value="- id: Long" style="text;strokeColor=none;fillColor=none;align=left;verticalAlign=top;spacingLeft=4;spacingRight=4;overflow=hidden;rotatable=0;points=[[0,0.5],[1,0.5]];portConstraint=eastwest;container=0;" parent="Lr7fWx6m4Q7cgu5vA2JN-154" vertex="1">
          <mxGeometry y="29" width="150" height="26" as="geometry" />
        </mxCell>
        <mxCell id="Lr7fWx6m4Q7cgu5vA2JN-156" value="- purchaseOrder : Date" style="text;strokeColor=none;fillColor=none;align=left;verticalAlign=top;spacingLeft=4;spacingRight=4;overflow=hidden;rotatable=0;points=[[0,0.5],[1,0.5]];portConstraint=eastwest;container=0;" parent="Lr7fWx6m4Q7cgu5vA2JN-154" vertex="1">
          <mxGeometry y="55" width="150" height="26" as="geometry" />
        </mxCell>
        <mxCell id="Lr7fWx6m4Q7cgu5vA2JN-157" style="edgeStyle=orthogonalEdgeStyle;shape=connector;rounded=0;orthogonalLoop=1;jettySize=auto;html=1;labelBackgroundColor=default;fontFamily=Helvetica;fontSize=12;fontColor=default;endArrow=block;endFill=0;strokeColor=default;shadow=0;swimlaneLine=1;align=center;labelPosition=center;verticalLabelPosition=middle;verticalAlign=middle;" parent="Lr7fWx6m4Q7cgu5vA2JN-151" source="Lr7fWx6m4Q7cgu5vA2JN-153" target="Lr7fWx6m4Q7cgu5vA2JN-154" edge="1">
          <mxGeometry relative="1" as="geometry">
            <Array as="points">
              <mxPoint x="245" y="101" />
              <mxPoint x="180" y="101" />
            </Array>
          </mxGeometry>
        </mxCell>
        <mxCell id="Lr7fWx6m4Q7cgu5vA2JN-158" style="edgeStyle=orthogonalEdgeStyle;shape=connector;rounded=0;orthogonalLoop=1;jettySize=auto;html=1;labelBackgroundColor=default;fontFamily=Helvetica;fontSize=12;fontColor=default;endArrow=none;endFill=0;strokeColor=default;startArrow=block;startFill=0;shadow=0;swimlaneLine=1;align=center;labelPosition=center;verticalLabelPosition=middle;verticalAlign=middle;" parent="Lr7fWx6m4Q7cgu5vA2JN-151" source="Lr7fWx6m4Q7cgu5vA2JN-154" target="Lr7fWx6m4Q7cgu5vA2JN-152" edge="1">
          <mxGeometry relative="1" as="geometry">
            <Array as="points">
              <mxPoint x="180" y="101" />
              <mxPoint x="75" y="101" />
            </Array>
          </mxGeometry>
        </mxCell>
        <mxCell id="Lr7fWx6m4Q7cgu5vA2JN-159" style="rounded=0;orthogonalLoop=1;jettySize=auto;html=1;endArrow=none;endFill=0;edgeStyle=orthogonalEdgeStyle;" parent="1" source="Lr7fWx6m4Q7cgu5vA2JN-52" target="Lr7fWx6m4Q7cgu5vA2JN-23" edge="1">
          <mxGeometry relative="1" as="geometry">
            <Array as="points">
              <mxPoint x="706" y="130" />
              <mxPoint x="706" y="130" />
            </Array>
          </mxGeometry>
        </mxCell>
        <mxCell id="Lr7fWx6m4Q7cgu5vA2JN-160" value="1..1" style="edgeLabel;html=1;align=center;verticalAlign=middle;resizable=0;points=[];labelBackgroundColor=none;" parent="Lr7fWx6m4Q7cgu5vA2JN-159" vertex="1" connectable="0">
          <mxGeometry x="0.9746" y="-1" relative="1" as="geometry">
            <mxPoint x="8" y="3" as="offset" />
          </mxGeometry>
        </mxCell>
        <mxCell id="Lr7fWx6m4Q7cgu5vA2JN-161" value="1..*" style="edgeLabel;html=1;align=center;verticalAlign=middle;resizable=0;points=[];labelBackgroundColor=none;" parent="Lr7fWx6m4Q7cgu5vA2JN-159" vertex="1" connectable="0">
          <mxGeometry x="-0.9715" y="-2" relative="1" as="geometry">
            <mxPoint x="7" y="-3" as="offset" />
          </mxGeometry>
        </mxCell>
        <mxCell id="Lr7fWx6m4Q7cgu5vA2JN-162" value="&amp;lt;&amp;lt;enum&amp;gt;&amp;gt;&lt;br&gt;RessourceRole" style="swimlane;fontStyle=1;align=center;verticalAlign=middle;childLayout=stackLayout;horizontal=1;startSize=29;horizontalStack=0;resizeParent=1;resizeParentMax=0;resizeLast=0;collapsible=0;marginBottom=0;html=1;fontSize=12;labelPosition=center;verticalLabelPosition=middle;container=0;" parent="1" vertex="1">
          <mxGeometry x="927" y="-33" width="150" height="159" as="geometry" />
        </mxCell>
        <mxCell id="Lr7fWx6m4Q7cgu5vA2JN-163" value="Developer" style="text;strokeColor=none;fillColor=none;align=left;verticalAlign=top;spacingLeft=4;spacingRight=4;overflow=hidden;rotatable=0;points=[[0,0.5],[1,0.5]];portConstraint=eastwest;container=0;" parent="Lr7fWx6m4Q7cgu5vA2JN-162" vertex="1">
          <mxGeometry y="29" width="150" height="26" as="geometry" />
        </mxCell>
        <mxCell id="Lr7fWx6m4Q7cgu5vA2JN-164" value="QA Engineer" style="text;strokeColor=none;fillColor=none;align=left;verticalAlign=top;spacingLeft=4;spacingRight=4;overflow=hidden;rotatable=0;points=[[0,0.5],[1,0.5]];portConstraint=eastwest;container=0;" parent="Lr7fWx6m4Q7cgu5vA2JN-162" vertex="1">
          <mxGeometry y="55" width="150" height="26" as="geometry" />
        </mxCell>
        <mxCell id="Lr7fWx6m4Q7cgu5vA2JN-165" value="Designer" style="text;strokeColor=none;fillColor=none;align=left;verticalAlign=top;spacingLeft=4;spacingRight=4;overflow=hidden;rotatable=0;points=[[0,0.5],[1,0.5]];portConstraint=eastwest;container=0;" parent="Lr7fWx6m4Q7cgu5vA2JN-162" vertex="1">
          <mxGeometry y="81" width="150" height="26" as="geometry" />
        </mxCell>
        <mxCell id="Lr7fWx6m4Q7cgu5vA2JN-166" value="DEVOPS Consultant" style="text;strokeColor=none;fillColor=none;align=left;verticalAlign=top;spacingLeft=4;spacingRight=4;overflow=hidden;rotatable=0;points=[[0,0.5],[1,0.5]];portConstraint=eastwest;container=0;" parent="Lr7fWx6m4Q7cgu5vA2JN-162" vertex="1">
          <mxGeometry y="107" width="150" height="26" as="geometry" />
        </mxCell>
        <mxCell id="Lr7fWx6m4Q7cgu5vA2JN-167" value="Team Lead" style="text;strokeColor=none;fillColor=none;align=left;verticalAlign=top;spacingLeft=4;spacingRight=4;overflow=hidden;rotatable=0;points=[[0,0.5],[1,0.5]];portConstraint=eastwest;container=0;" parent="Lr7fWx6m4Q7cgu5vA2JN-162" vertex="1">
          <mxGeometry y="133" width="150" height="26" as="geometry" />
        </mxCell>
        <mxCell id="Lr7fWx6m4Q7cgu5vA2JN-168" style="edgeStyle=orthogonalEdgeStyle;rounded=0;orthogonalLoop=1;jettySize=auto;html=1;endArrow=openThin;endFill=0;dashed=1;" parent="1" source="Lr7fWx6m4Q7cgu5vA2JN-23" target="Lr7fWx6m4Q7cgu5vA2JN-162" edge="1">
          <mxGeometry relative="1" as="geometry">
            <Array as="points">
              <mxPoint x="900" y="34" />
              <mxPoint x="900" y="34" />
            </Array>
          </mxGeometry>
        </mxCell>
        <mxCell id="Lr7fWx6m4Q7cgu5vA2JN-169" style="edgeStyle=orthogonalEdgeStyle;rounded=0;jumpStyle=none;orthogonalLoop=1;jettySize=auto;html=1;endArrow=none;endFill=0;" parent="1" source="Lr7fWx6m4Q7cgu5vA2JN-172" target="Lr7fWx6m4Q7cgu5vA2JN-183" edge="1">
          <mxGeometry relative="1" as="geometry" />
        </mxCell>
        <mxCell id="Lr7fWx6m4Q7cgu5vA2JN-170" value="1..*" style="edgeLabel;html=1;align=center;verticalAlign=middle;resizable=0;points=[];labelBackgroundColor=none;" parent="Lr7fWx6m4Q7cgu5vA2JN-169" vertex="1" connectable="0">
          <mxGeometry x="0.6614" y="-1" relative="1" as="geometry">
            <mxPoint x="10" y="3" as="offset" />
          </mxGeometry>
        </mxCell>
        <mxCell id="Lr7fWx6m4Q7cgu5vA2JN-171" value="1..1" style="edgeLabel;html=1;align=center;verticalAlign=middle;resizable=0;points=[];labelBackgroundColor=none;" parent="Lr7fWx6m4Q7cgu5vA2JN-169" vertex="1" connectable="0">
          <mxGeometry x="-0.8054" relative="1" as="geometry">
            <mxPoint x="9" as="offset" />
          </mxGeometry>
        </mxCell>
        <mxCell id="Lr7fWx6m4Q7cgu5vA2JN-172" value="Calendrier" style="swimlane;fontStyle=1;align=center;verticalAlign=middle;childLayout=stackLayout;horizontal=1;startSize=29;horizontalStack=0;resizeParent=1;resizeParentMax=0;resizeLast=0;collapsible=0;marginBottom=0;html=1;shadow=0;fontSize=12;labelPosition=center;verticalLabelPosition=middle;container=0;" parent="1" vertex="1">
          <mxGeometry x="306" y="324" width="150" height="55" as="geometry" />
        </mxCell>
        <mxCell id="Lr7fWx6m4Q7cgu5vA2JN-173" value="- id: Long" style="text;strokeColor=none;fillColor=none;align=left;verticalAlign=top;spacingLeft=4;spacingRight=4;overflow=hidden;rotatable=0;points=[[0,0.5],[1,0.5]];portConstraint=eastwest;container=0;" parent="Lr7fWx6m4Q7cgu5vA2JN-172" vertex="1">
          <mxGeometry y="29" width="150" height="26" as="geometry" />
        </mxCell>
        <mxCell id="Lr7fWx6m4Q7cgu5vA2JN-174" value="" style="group" parent="1" vertex="1" connectable="0">
          <mxGeometry x="32" y="324" width="150" height="211" as="geometry" />
        </mxCell>
        <mxCell id="Lr7fWx6m4Q7cgu5vA2JN-175" value="&lt;span style=&quot;font-size: 12px&quot;&gt;Risque&lt;/span&gt;" style="swimlane;fontStyle=1;align=center;verticalAlign=middle;childLayout=stackLayout;horizontal=1;startSize=29;horizontalStack=0;resizeParent=1;resizeParentMax=0;resizeLast=0;collapsible=0;marginBottom=0;html=1;shadow=0;fontSize=12;labelPosition=center;verticalLabelPosition=middle;container=0;" parent="Lr7fWx6m4Q7cgu5vA2JN-174" vertex="1">
          <mxGeometry width="150" height="210" as="geometry" />
        </mxCell>
        <mxCell id="Lr7fWx6m4Q7cgu5vA2JN-176" value="- id: Long" style="text;strokeColor=none;fillColor=none;align=left;verticalAlign=top;spacingLeft=4;spacingRight=4;overflow=hidden;rotatable=0;points=[[0,0.5],[1,0.5]];portConstraint=eastwest;container=0;" parent="Lr7fWx6m4Q7cgu5vA2JN-174" vertex="1">
          <mxGeometry y="29" width="150" height="26" as="geometry" />
        </mxCell>
        <mxCell id="Lr7fWx6m4Q7cgu5vA2JN-177" value="- date : Date" style="text;strokeColor=none;fillColor=none;align=left;verticalAlign=top;spacingLeft=4;spacingRight=4;overflow=hidden;rotatable=0;points=[[0,0.5],[1,0.5]];portConstraint=eastwest;container=0;" parent="Lr7fWx6m4Q7cgu5vA2JN-174" vertex="1">
          <mxGeometry y="55" width="150" height="26" as="geometry" />
        </mxCell>
        <mxCell id="Lr7fWx6m4Q7cgu5vA2JN-178" value="- risk : String" style="text;strokeColor=none;fillColor=none;align=left;verticalAlign=top;spacingLeft=4;spacingRight=4;overflow=hidden;rotatable=0;points=[[0,0.5],[1,0.5]];portConstraint=eastwest;container=0;" parent="Lr7fWx6m4Q7cgu5vA2JN-174" vertex="1">
          <mxGeometry y="81" width="150" height="26" as="geometry" />
        </mxCell>
        <mxCell id="Lr7fWx6m4Q7cgu5vA2JN-179" value="- response : String" style="text;strokeColor=none;fillColor=none;align=left;verticalAlign=top;spacingLeft=4;spacingRight=4;overflow=hidden;rotatable=0;points=[[0,0.5],[1,0.5]];portConstraint=eastwest;container=0;" parent="Lr7fWx6m4Q7cgu5vA2JN-174" vertex="1">
          <mxGeometry y="107" width="150" height="26" as="geometry" />
        </mxCell>
        <mxCell id="Lr7fWx6m4Q7cgu5vA2JN-180" value="- probability : int" style="text;strokeColor=none;fillColor=none;align=left;verticalAlign=top;spacingLeft=4;spacingRight=4;overflow=hidden;rotatable=0;points=[[0,0.5],[1,0.5]];portConstraint=eastwest;container=0;" parent="Lr7fWx6m4Q7cgu5vA2JN-174" vertex="1">
          <mxGeometry y="133" width="150" height="26" as="geometry" />
        </mxCell>
        <mxCell id="Lr7fWx6m4Q7cgu5vA2JN-181" value="- impact : int" style="text;strokeColor=none;fillColor=none;align=left;verticalAlign=top;spacingLeft=4;spacingRight=4;overflow=hidden;rotatable=0;points=[[0,0.5],[1,0.5]];portConstraint=eastwest;container=0;" parent="Lr7fWx6m4Q7cgu5vA2JN-174" vertex="1">
          <mxGeometry y="159" width="150" height="26" as="geometry" />
        </mxCell>
        <mxCell id="Lr7fWx6m4Q7cgu5vA2JN-182" value="- assessment : int" style="text;strokeColor=none;fillColor=none;align=left;verticalAlign=top;spacingLeft=4;spacingRight=4;overflow=hidden;rotatable=0;points=[[0,0.5],[1,0.5]];portConstraint=eastwest;container=0;" parent="Lr7fWx6m4Q7cgu5vA2JN-174" vertex="1">
          <mxGeometry y="185" width="150" height="26" as="geometry" />
        </mxCell>
        <mxCell id="Lr7fWx6m4Q7cgu5vA2JN-183" value="Iteration" style="swimlane;fontStyle=1;align=center;verticalAlign=middle;childLayout=stackLayout;horizontal=1;startSize=29;horizontalStack=0;resizeParent=1;resizeParentMax=0;resizeLast=0;collapsible=0;marginBottom=0;html=1;fontSize=12;labelPosition=center;verticalLabelPosition=middle;container=0;" parent="1" vertex="1">
          <mxGeometry x="306" y="426" width="150" height="107" as="geometry" />
        </mxCell>
        <mxCell id="Lr7fWx6m4Q7cgu5vA2JN-184" value="- id: Long" style="text;strokeColor=none;fillColor=none;align=left;verticalAlign=top;spacingLeft=4;spacingRight=4;overflow=hidden;rotatable=0;points=[[0,0.5],[1,0.5]];portConstraint=eastwest;container=0;" parent="Lr7fWx6m4Q7cgu5vA2JN-183" vertex="1">
          <mxGeometry y="29" width="150" height="26" as="geometry" />
        </mxCell>
        <mxCell id="cilk552ZbUPnK1PKeX4x-1" value="- nom : String" style="text;strokeColor=none;fillColor=none;align=left;verticalAlign=top;spacingLeft=4;spacingRight=4;overflow=hidden;rotatable=0;points=[[0,0.5],[1,0.5]];portConstraint=eastwest;container=0;" parent="Lr7fWx6m4Q7cgu5vA2JN-183" vertex="1">
          <mxGeometry y="55" width="150" height="26" as="geometry" />
        </mxCell>
        <mxCell id="Lr7fWx6m4Q7cgu5vA2JN-185" value="- deadLine : Date" style="text;strokeColor=none;fillColor=none;align=left;verticalAlign=top;spacingLeft=4;spacingRight=4;overflow=hidden;rotatable=0;points=[[0,0.5],[1,0.5]];portConstraint=eastwest;container=0;" parent="Lr7fWx6m4Q7cgu5vA2JN-183" vertex="1">
          <mxGeometry y="81" width="150" height="26" as="geometry" />
        </mxCell>
        <mxCell id="Lr7fWx6m4Q7cgu5vA2JN-186" value="Livraison" style="swimlane;fontStyle=1;align=center;verticalAlign=middle;childLayout=stackLayout;horizontal=1;startSize=29;horizontalStack=0;resizeParent=1;resizeParentMax=0;resizeLast=0;collapsible=0;marginBottom=0;html=1;fontSize=12;labelPosition=center;verticalLabelPosition=middle;container=0;" parent="1" vertex="1">
          <mxGeometry x="425" y="565" width="150" height="81" as="geometry" />
        </mxCell>
        <mxCell id="Lr7fWx6m4Q7cgu5vA2JN-187" value="- id: Long" style="text;strokeColor=none;fillColor=none;align=left;verticalAlign=top;spacingLeft=4;spacingRight=4;overflow=hidden;rotatable=0;points=[[0,0.5],[1,0.5]];portConstraint=eastwest;container=0;" parent="Lr7fWx6m4Q7cgu5vA2JN-186" vertex="1">
          <mxGeometry y="29" width="150" height="26" as="geometry" />
        </mxCell>
        <mxCell id="Lr7fWx6m4Q7cgu5vA2JN-188" value="- deliveryDate : Date" style="text;strokeColor=none;fillColor=none;align=left;verticalAlign=top;spacingLeft=4;spacingRight=4;overflow=hidden;rotatable=0;points=[[0,0.5],[1,0.5]];portConstraint=eastwest;container=0;" parent="Lr7fWx6m4Q7cgu5vA2JN-186" vertex="1">
          <mxGeometry y="55" width="150" height="26" as="geometry" />
        </mxCell>
        <mxCell id="Lr7fWx6m4Q7cgu5vA2JN-189" value="Action" style="swimlane;fontStyle=1;align=center;verticalAlign=middle;childLayout=stackLayout;horizontal=1;startSize=29;horizontalStack=0;resizeParent=1;resizeParentMax=0;resizeLast=0;collapsible=0;marginBottom=0;html=1;fontSize=12;labelPosition=center;verticalLabelPosition=middle;container=0;" parent="1" vertex="1">
          <mxGeometry x="215" y="565" width="150" height="107" as="geometry" />
        </mxCell>
        <mxCell id="Lr7fWx6m4Q7cgu5vA2JN-190" value="- id: Long" style="text;strokeColor=none;fillColor=none;align=left;verticalAlign=top;spacingLeft=4;spacingRight=4;overflow=hidden;rotatable=0;points=[[0,0.5],[1,0.5]];portConstraint=eastwest;container=0;" parent="Lr7fWx6m4Q7cgu5vA2JN-189" vertex="1">
          <mxGeometry y="29" width="150" height="26" as="geometry" />
        </mxCell>
        <mxCell id="Lr7fWx6m4Q7cgu5vA2JN-191" value="- action : String" style="text;strokeColor=none;fillColor=none;align=left;verticalAlign=top;spacingLeft=4;spacingRight=4;overflow=hidden;rotatable=0;points=[[0,0.5],[1,0.5]];portConstraint=eastwest;container=0;" parent="Lr7fWx6m4Q7cgu5vA2JN-189" vertex="1">
          <mxGeometry y="55" width="150" height="26" as="geometry" />
        </mxCell>
        <mxCell id="Lr7fWx6m4Q7cgu5vA2JN-192" value="- effort : String" style="text;strokeColor=none;fillColor=none;align=left;verticalAlign=top;spacingLeft=4;spacingRight=4;overflow=hidden;rotatable=0;points=[[0,0.5],[1,0.5]];portConstraint=eastwest;container=0;" parent="Lr7fWx6m4Q7cgu5vA2JN-189" vertex="1">
          <mxGeometry y="81" width="150" height="26" as="geometry" />
        </mxCell>
        <mxCell id="Lr7fWx6m4Q7cgu5vA2JN-193" style="edgeStyle=orthogonalEdgeStyle;rounded=0;jumpStyle=none;orthogonalLoop=1;jettySize=auto;html=1;endArrow=none;endFill=0;" parent="1" source="Lr7fWx6m4Q7cgu5vA2JN-11" target="Lr7fWx6m4Q7cgu5vA2JN-23" edge="1">
          <mxGeometry relative="1" as="geometry">
            <Array as="points">
              <mxPoint x="660" y="125" />
            </Array>
          </mxGeometry>
        </mxCell>
        <mxCell id="Lr7fWx6m4Q7cgu5vA2JN-194" value="1..1" style="edgeLabel;html=1;align=center;verticalAlign=middle;resizable=0;points=[];labelBackgroundColor=none;" parent="Lr7fWx6m4Q7cgu5vA2JN-193" vertex="1" connectable="0">
          <mxGeometry x="-0.9427" y="1" relative="1" as="geometry">
            <mxPoint x="2" y="-4" as="offset" />
          </mxGeometry>
        </mxCell>
        <mxCell id="Lr7fWx6m4Q7cgu5vA2JN-195" value="1..1" style="edgeLabel;html=1;align=center;verticalAlign=middle;resizable=0;points=[];labelBackgroundColor=none;" parent="Lr7fWx6m4Q7cgu5vA2JN-193" vertex="1" connectable="0">
          <mxGeometry x="0.9307" y="-1" relative="1" as="geometry">
            <mxPoint x="8" y="-3" as="offset" />
          </mxGeometry>
        </mxCell>
        <mxCell id="Lr7fWx6m4Q7cgu5vA2JN-196" style="rounded=0;jumpStyle=none;orthogonalLoop=1;jettySize=auto;html=1;endArrow=none;endFill=0;edgeStyle=orthogonalEdgeStyle;" parent="1" source="Lr7fWx6m4Q7cgu5vA2JN-23" target="Lr7fWx6m4Q7cgu5vA2JN-9" edge="1">
          <mxGeometry relative="1" as="geometry">
            <Array as="points">
              <mxPoint x="494" y="77" />
              <mxPoint x="494" y="77" />
            </Array>
          </mxGeometry>
        </mxCell>
        <mxCell id="Lr7fWx6m4Q7cgu5vA2JN-197" value="1..*" style="edgeLabel;html=1;align=center;verticalAlign=middle;resizable=0;points=[];labelBackgroundColor=none;" parent="Lr7fWx6m4Q7cgu5vA2JN-196" vertex="1" connectable="0">
          <mxGeometry x="-0.9029" relative="1" as="geometry">
            <mxPoint x="-3" y="-6" as="offset" />
          </mxGeometry>
        </mxCell>
        <mxCell id="Lr7fWx6m4Q7cgu5vA2JN-198" value="1..1" style="edgeLabel;html=1;align=center;verticalAlign=middle;resizable=0;points=[];labelBackgroundColor=none;" parent="Lr7fWx6m4Q7cgu5vA2JN-196" vertex="1" connectable="0">
          <mxGeometry x="0.8987" relative="1" as="geometry">
            <mxPoint x="1" y="-5" as="offset" />
          </mxGeometry>
        </mxCell>
        <mxCell id="Lr7fWx6m4Q7cgu5vA2JN-199" style="edgeStyle=orthogonalEdgeStyle;rounded=0;jumpStyle=none;orthogonalLoop=1;jettySize=auto;html=1;endArrow=none;endFill=0;" parent="1" source="Lr7fWx6m4Q7cgu5vA2JN-9" target="Lr7fWx6m4Q7cgu5vA2JN-175" edge="1">
          <mxGeometry relative="1" as="geometry">
            <Array as="points">
              <mxPoint x="255" y="229" />
              <mxPoint x="255" y="421" />
            </Array>
          </mxGeometry>
        </mxCell>
        <mxCell id="Lr7fWx6m4Q7cgu5vA2JN-200" value="1..*" style="edgeLabel;html=1;align=center;verticalAlign=middle;resizable=0;points=[];labelBackgroundColor=none;" parent="Lr7fWx6m4Q7cgu5vA2JN-199" vertex="1" connectable="0">
          <mxGeometry x="0.9048" y="2" relative="1" as="geometry">
            <mxPoint x="-6" y="-7" as="offset" />
          </mxGeometry>
        </mxCell>
        <mxCell id="Lr7fWx6m4Q7cgu5vA2JN-201" value="1..1" style="edgeLabel;html=1;align=center;verticalAlign=middle;resizable=0;points=[];labelBackgroundColor=none;" parent="Lr7fWx6m4Q7cgu5vA2JN-199" vertex="1" connectable="0">
          <mxGeometry x="-0.9131" relative="1" as="geometry">
            <mxPoint y="-5" as="offset" />
          </mxGeometry>
        </mxCell>
        <mxCell id="cilk552ZbUPnK1PKeX4x-2" style="edgeStyle=orthogonalEdgeStyle;rounded=0;orthogonalLoop=1;jettySize=auto;html=1;endArrow=none;endFill=0;" parent="1" source="Lr7fWx6m4Q7cgu5vA2JN-13" target="Lr7fWx6m4Q7cgu5vA2JN-76" edge="1">
          <mxGeometry relative="1" as="geometry">
            <Array as="points">
              <mxPoint x="197" y="172" />
              <mxPoint x="197" y="773" />
            </Array>
          </mxGeometry>
        </mxCell>
        <mxCell id="cilk552ZbUPnK1PKeX4x-3" value="1..1" style="edgeLabel;html=1;align=center;verticalAlign=middle;resizable=0;points=[];labelBackgroundColor=none;" parent="cilk552ZbUPnK1PKeX4x-2" vertex="1" connectable="0">
          <mxGeometry x="-0.969" y="1" relative="1" as="geometry">
            <mxPoint x="1" y="-6" as="offset" />
          </mxGeometry>
        </mxCell>
        <mxCell id="cilk552ZbUPnK1PKeX4x-5" value="1..*" style="edgeLabel;html=1;align=center;verticalAlign=middle;resizable=0;points=[];labelBackgroundColor=none;" parent="cilk552ZbUPnK1PKeX4x-2" vertex="1" connectable="0">
          <mxGeometry x="0.9779" relative="1" as="geometry">
            <mxPoint x="-2" y="-5" as="offset" />
          </mxGeometry>
        </mxCell>
      </root>
    </mxGraphModel>
  </diagram>
</mxfile>
